<svg width="112" height="32" viewBox="0 0 112 32" fill="none" xmlns="http://www.w3.org/2000/svg">
<g opacity="0.5" clip-path="url(#clip0_11_1226)">
<path d="M22.3121 0.0277447C21.4697 0.0832407 20.9994 0.151795 20.3566 0.305225C18.7293 0.693697 17.5554 1.54899 16.8889 2.83846C16.7163 3.16817 16.4592 3.87329 16.4592 4.01693C16.4592 4.18342 16.5979 4.39235 16.7637 4.47069C16.9126 4.54578 16.9193 4.54578 18.55 4.54578C19.6665 4.54578 20.2349 4.53272 20.3397 4.50987C20.4987 4.47069 20.6172 4.37276 20.8743 4.07243C21.2566 3.62193 22.0076 3.40321 23.185 3.40321C24.1357 3.40321 24.8766 3.55011 25.313 3.82759C25.5464 3.97449 25.6818 4.12466 25.8002 4.3597L25.8814 4.5164L26.0336 4.50007C26.4768 4.44458 29.1089 4.32706 30.0528 4.31726C30.107 4.31726 30.107 4.13119 30.0427 3.77536C29.9649 3.34445 29.8431 2.99189 29.6367 2.59689C28.8822 1.14419 27.1907 0.315018 24.5112 0.0734473C24.0984 0.0375381 22.6268 0.00815785 22.3121 0.0277447Z" fill="#DCDCDC"/>
<path d="M38.8558 0.0440699C38.3078 0.0832436 37.7665 0.161591 37.215 0.285641C35.2967 0.719816 33.9232 1.67957 33.2567 3.05718C33.0402 3.50441 32.8 4.34012 32.8778 4.36623C32.9015 4.37603 33.3311 4.40214 33.8318 4.43152C34.7893 4.48375 36.2136 4.59148 36.6737 4.64371C37.1473 4.69921 37.1203 4.71553 37.1372 4.43479C37.1507 4.25198 37.1744 4.15731 37.2421 4.04958C37.4248 3.74598 37.78 3.53053 38.3044 3.39995C38.8626 3.26284 39.9588 3.23999 40.5711 3.35425C41.4304 3.5142 41.9108 3.83086 42.2086 4.43479C42.4488 4.92446 42.7905 5.18235 43.3994 5.33578C43.6599 5.40107 43.7716 5.4076 45.2264 5.41739L46.7725 5.43045V5.31619C46.7725 5.12685 46.671 4.48375 46.5999 4.20301C46.3394 3.21714 45.9402 2.5316 45.2196 1.833C44.7358 1.36945 44.3839 1.12787 43.7445 0.824279C42.4522 0.213823 40.6286 -0.0767156 38.8558 0.0440699Z" fill="#DCDCDC"/>
<path d="M75.1404 0.0440826C74.9746 0.0604049 74.7987 0.0832563 74.7514 0.0930497C74.704 0.106108 74.6532 0.112637 74.6397 0.112637C74.6025 0.102843 73.9969 0.226893 73.6924 0.30524C73.4556 0.367265 73.4319 0.380323 73.4488 0.445613C73.4658 0.507638 73.4658 0.507638 73.4319 0.455406C73.3812 0.380323 73.344 0.386852 72.7824 0.602308L72.3527 0.765531L72.0753 1.14747C71.6422 1.73508 71.5678 1.83628 71.5475 1.83628C71.5306 1.83628 71.5847 1.75793 71.967 1.24541C72.1226 1.03648 72.2478 0.856936 72.2478 0.843879C72.2478 0.77206 71.3242 1.29764 70.81 1.66326C70.4852 1.89504 69.8187 2.45 69.8153 2.4957C69.8119 2.50876 69.8627 2.52508 69.9236 2.53161C70.0183 2.5414 70.0183 2.54467 69.8931 2.54793C69.7679 2.55446 69.7307 2.57731 69.548 2.76339C69.1962 3.12575 68.6278 3.85372 68.6278 3.94186C68.6278 3.96145 68.6887 4.01042 68.7631 4.05286C68.8376 4.09203 68.9086 4.141 68.9221 4.16385C68.9357 4.1867 68.9052 4.17691 68.8545 4.14426C68.8037 4.11488 68.7259 4.06591 68.6786 4.03653C68.5703 3.96798 68.5737 3.96145 68.2726 4.51968C68.1203 4.80695 68.0561 4.95712 68.0696 5.00282C68.0831 5.04852 68.0764 5.06158 68.0459 5.05178C68.0155 5.03873 67.9647 5.1236 67.8869 5.31621C67.7956 5.54146 67.579 6.16171 67.579 6.20088C67.579 6.20414 67.7347 6.21394 67.9275 6.22047L68.2726 6.23026L67.9241 6.23679C67.5384 6.24332 67.535 6.24658 67.4978 6.51427C67.4877 6.56977 67.4674 6.67749 67.4471 6.74931C67.4166 6.86357 67.4234 6.89948 67.4944 7.02679C67.9918 7.93105 68.0865 8.09101 68.1576 8.12692C68.2015 8.14977 68.2184 8.16936 68.1981 8.16936C68.1745 8.16936 68.1542 8.18242 68.1542 8.19874C68.1542 8.22485 69.6969 11.0388 69.7307 11.0715C69.7375 11.078 69.7679 11.0715 69.8018 11.0584C69.8356 11.0421 69.8864 11.0356 69.9134 11.0388C69.9439 11.0421 70.2517 10.732 70.634 10.3076C71.2092 9.67428 71.2971 9.56329 71.2667 9.51106C71.2498 9.47515 71.2329 9.41312 71.2329 9.36742C71.2329 9.29887 71.1449 9.2499 70.4378 8.91692L69.6394 8.54151L69.548 8.60027C69.2977 8.76676 68.9458 8.4599 69.0845 8.202C69.1319 8.11386 69.1285 8.10733 68.9729 7.97022C68.6143 7.65357 67.4978 6.59588 67.535 6.60567C67.5553 6.6122 67.9309 6.95171 68.3639 7.35977C68.9357 7.89188 69.1691 8.09101 69.203 8.07142C69.2402 8.04857 69.2436 8.01919 69.2097 7.92126C69.159 7.7613 69.1827 7.73518 69.2368 7.88861C69.2672 7.98328 69.2943 8.00613 69.3653 8.00613C69.5819 8.0094 69.7544 8.20853 69.7037 8.39134C69.6867 8.45337 69.6766 8.5056 69.6834 8.51213C69.6901 8.51866 70.0454 8.69167 70.4784 8.9006C71.2193 9.25643 71.402 9.31519 71.2329 9.14217C71.1923 9.09973 70.9588 8.85163 70.7152 8.58395C70.4716 8.31952 70.2619 8.10407 70.245 8.10407C70.2314 8.10407 70.2179 8.08775 70.2179 8.07142C70.2179 8.05184 70.2382 8.03878 70.2619 8.03878C70.316 8.03878 71.0705 7.7515 71.1077 7.7156C71.1652 7.6601 71.0941 7.5589 70.9588 7.50014C70.8844 7.4675 70.8167 7.42832 70.8066 7.412C70.793 7.39568 70.8675 7.42179 70.9622 7.4675C71.0705 7.51973 71.1483 7.54258 71.1618 7.52299C71.172 7.5034 71.2295 7.48382 71.2904 7.47729C71.3851 7.4675 71.4629 7.38262 72.0516 6.63505C72.4136 6.17803 72.7215 5.77976 72.7384 5.75365C72.7553 5.72753 72.7925 5.60348 72.8229 5.47617L72.8771 5.24765L73.0158 5.23786C73.2052 5.2248 73.2458 5.16931 73.1917 5.01914C73.168 4.95712 73.1241 4.90488 73.0936 4.90162C73.0632 4.90162 73.0733 4.88856 73.1207 4.87224C73.1613 4.85592 73.2052 4.82001 73.2154 4.79389C73.2289 4.76125 72.9075 4.37604 72.285 3.67744L71.3344 2.60996L71.1314 2.60343C70.9927 2.5969 70.9182 2.60996 70.9013 2.63607C70.8878 2.66219 70.5461 3.00496 70.1401 3.39996L69.4059 4.11815L69.4262 4.24546C69.4398 4.33687 69.4296 4.39889 69.3924 4.45439C69.3349 4.54253 69.2266 4.35319 70.5562 6.47183C71.2126 7.51973 71.1889 7.48055 71.1381 7.43485C71.1077 7.40547 70.0657 5.75365 69.5582 4.92773C69.3247 4.54906 69.3214 4.54253 69.2131 4.55885C68.9898 4.59149 68.8477 4.26831 69.027 4.1312C69.0642 4.10509 69.1387 4.09203 69.23 4.10182L69.3755 4.11488L70.1672 3.32814C70.9081 2.59364 70.9588 2.53814 70.9148 2.47612C70.8844 2.42388 70.881 2.38145 70.9047 2.30963C70.9385 2.21822 70.9284 2.20516 70.7423 2.04194C70.634 1.94727 70.5596 1.86892 70.5765 1.86892C70.5901 1.86892 70.6848 1.94401 70.7795 2.03541C70.9385 2.18558 70.9622 2.19864 71.0299 2.16273C71.0705 2.13987 71.1483 2.13008 71.199 2.13987C71.2802 2.1562 71.3073 2.13987 71.3986 2.01256C71.5441 1.82322 71.5712 1.82649 71.4325 2.01909C71.3276 2.16599 71.3276 2.17252 71.3783 2.27698C71.4257 2.36839 71.4257 2.3945 71.3817 2.47285C71.3344 2.56099 71.3377 2.56752 71.5441 2.7993C71.6625 2.92661 72.0922 3.40975 72.5015 3.87331L73.2458 4.71228L73.3744 4.69269C73.4861 4.67311 73.5131 4.6829 73.5943 4.76778C73.6484 4.82327 73.7263 4.87224 73.7736 4.88203C73.8514 4.89509 73.8514 4.89509 73.7635 4.90162C73.6992 4.90488 73.6687 4.92121 73.6687 4.96038C73.6654 4.99302 73.6383 5.05505 73.6011 5.09422C73.5469 5.15625 73.5097 5.16931 73.3947 5.15951C73.3034 5.15298 73.2458 5.16278 73.2391 5.18889C73.2255 5.22154 73.4218 5.22807 74.0984 5.22154L74.9713 5.21501L74.9814 3.97451C74.9848 3.29223 74.978 2.71769 74.9645 2.6981C74.9476 2.68178 74.8326 2.60996 74.704 2.5414C74.5078 2.44021 74.457 2.42388 74.3826 2.45326C74.2067 2.51855 74.1627 2.51202 74.0815 2.40756C74.0138 2.31942 73.98 2.30636 73.777 2.29004L73.5503 2.27372L73.7702 2.26719L73.9901 2.2574L74.051 2.13008C74.1119 2.00603 74.1153 2.00277 74.2777 2.01582L74.4435 2.02562L75.4754 1.03975C76.0471 0.501109 76.5106 0.047347 76.5106 0.0310247C76.5106 0.00164442 75.5329 0.00817336 75.1404 0.0440826ZM74.6397 0.27586C74.6296 0.301976 74.6194 0.292183 74.6194 0.256273C74.616 0.220364 74.6262 0.200777 74.6363 0.213835C74.6465 0.223629 74.6499 0.253009 74.6397 0.27586ZM74.6059 0.471729C74.5957 0.497844 74.5856 0.488051 74.5856 0.452142C74.5822 0.416233 74.5924 0.396646 74.6025 0.409704C74.6126 0.419497 74.616 0.448877 74.6059 0.471729ZM74.5721 0.634952C74.5619 0.661068 74.5518 0.651275 74.5518 0.615365C74.5484 0.579456 74.5585 0.559869 74.5687 0.572927C74.5788 0.582721 74.5822 0.612101 74.5721 0.634952ZM74.5382 0.830821C74.5281 0.853672 74.5213 0.83735 74.5213 0.791647C74.5213 0.745944 74.5281 0.729622 74.5382 0.749209C74.545 0.77206 74.545 0.811234 74.5382 0.830821ZM73.6687 0.971193C73.6687 0.987515 73.6518 0.980986 73.6349 0.954871C73.618 0.928755 73.6011 0.889581 73.6011 0.873259C73.6011 0.853672 73.618 0.863465 73.6349 0.889581C73.6518 0.915697 73.6687 0.951606 73.6687 0.971193ZM74.5044 0.994044C74.4942 1.02016 74.4841 1.01037 74.4841 0.974458C74.4807 0.938548 74.4909 0.918961 74.501 0.932019C74.5112 0.941813 74.5145 0.971193 74.5044 0.994044ZM73.733 1.11809C73.7702 1.19644 73.7702 1.19644 73.7229 1.13768C73.6924 1.10177 73.6687 1.05933 73.6687 1.03975C73.6687 1.00057 73.6857 1.0169 73.733 1.11809ZM74.3691 1.549C74.3589 1.57512 74.3488 1.56533 74.3488 1.52942C74.3454 1.49351 74.3555 1.47392 74.3657 1.48698C74.3758 1.49677 74.3792 1.52615 74.3691 1.549ZM74.3352 1.74487C74.3251 1.77099 74.3149 1.7612 74.3149 1.72529C74.3115 1.68938 74.3217 1.66979 74.3318 1.68285C74.342 1.69264 74.3454 1.72202 74.3352 1.74487ZM74.0849 1.90157C74.095 1.93748 74.0916 1.96033 74.0747 1.95054C74.0612 1.94074 74.0409 1.90483 74.0307 1.86892C74.0206 1.83301 74.024 1.81016 74.0409 1.81996C74.0544 1.82975 74.0747 1.86566 74.0849 1.90157ZM74.3014 1.9081C74.2912 1.93421 74.2811 1.92442 74.2811 1.88851C74.2777 1.8526 74.2879 1.83301 74.298 1.84607C74.3082 1.85587 74.3115 1.88525 74.3014 1.9081ZM73.1714 2.31616C73.0733 2.32269 72.9075 2.32269 72.7993 2.31616C72.691 2.30963 72.7722 2.30636 72.9752 2.30636C73.1816 2.30636 73.2695 2.30963 73.1714 2.31616ZM72.1903 2.3488C72.0922 2.35533 71.9298 2.35533 71.8351 2.3488C71.737 2.34227 71.8148 2.33901 72.011 2.33901C72.2072 2.33901 72.285 2.34227 72.1903 2.3488ZM70.5325 2.47938C70.5089 2.48591 70.4683 2.48591 70.448 2.47938C70.4243 2.46959 70.4412 2.46306 70.4886 2.46306C70.5359 2.46306 70.5528 2.46959 70.5325 2.47938ZM70.245 2.51202C70.2111 2.51855 70.157 2.51855 70.1266 2.51202C70.0927 2.50223 70.1198 2.4957 70.1841 2.4957C70.2484 2.4957 70.2754 2.50223 70.245 2.51202ZM73.9631 3.1486C73.9529 3.17471 73.9428 3.16492 73.9428 3.12901C73.9394 3.0931 73.9495 3.07351 73.9597 3.08657C73.9698 3.09637 73.9732 3.12575 73.9631 3.1486ZM73.5909 4.3891C73.5808 4.41521 73.5706 4.40542 73.5706 4.36951C73.5672 4.3336 73.5774 4.31401 73.5875 4.32707C73.5977 4.33687 73.6011 4.36625 73.5909 4.3891ZM69.6428 4.36298C69.6428 4.39889 69.5785 4.41195 69.5582 4.38257C69.548 4.36625 69.5616 4.34992 69.5886 4.34992C69.6191 4.34992 69.6428 4.35645 69.6428 4.36298ZM69.9033 4.4348C69.8931 4.44459 69.8627 4.44786 69.839 4.43806C69.8119 4.42827 69.8221 4.41848 69.8593 4.41848C69.8965 4.41521 69.9168 4.42501 69.9033 4.4348ZM70.1604 4.47071C70.1367 4.47724 70.0961 4.47724 70.0758 4.47071C70.0521 4.46092 70.069 4.45439 70.1164 4.45439C70.1638 4.45439 70.1807 4.46092 70.1604 4.47071ZM70.431 4.50335C70.4074 4.50988 70.36 4.50988 70.3295 4.50335C70.2957 4.49356 70.316 4.48703 70.3701 4.48703C70.4277 4.48703 70.4513 4.49356 70.431 4.50335ZM70.6679 4.536C70.6442 4.54253 70.5968 4.54253 70.5664 4.536C70.5325 4.5262 70.5528 4.51968 70.607 4.51968C70.6645 4.51968 70.6882 4.5262 70.6679 4.536ZM70.9385 4.56864C70.9148 4.57517 70.8675 4.57517 70.837 4.56864C70.8032 4.55885 70.8235 4.55232 70.8776 4.55232C70.9351 4.55232 70.9588 4.55885 70.9385 4.56864ZM71.1753 4.60129C71.1517 4.60782 71.1043 4.60782 71.0738 4.60129C71.04 4.59149 71.0603 4.58497 71.1144 4.58497C71.172 4.58497 71.1956 4.59149 71.1753 4.60129ZM71.4122 4.63393C71.3885 4.64046 71.3411 4.64046 71.3107 4.63393C71.2768 4.62414 71.2971 4.61761 71.3513 4.61761C71.4088 4.61761 71.4325 4.62414 71.4122 4.63393ZM71.649 4.66658C71.6253 4.67311 71.5847 4.67311 71.5644 4.66658C71.5407 4.65678 71.5576 4.65025 71.605 4.65025C71.6524 4.65025 71.6693 4.65678 71.649 4.66658ZM71.8993 4.69596C71.8892 4.70575 71.8587 4.70902 71.8351 4.69922C71.808 4.68943 71.8181 4.67963 71.8554 4.67963C71.8926 4.67637 71.9129 4.68616 71.8993 4.69596ZM72.17 4.76125C72.1598 4.77104 72.1294 4.7743 72.1057 4.76451C72.0787 4.75472 72.0888 4.74492 72.126 4.74492C72.1632 4.74166 72.1835 4.75145 72.17 4.76125ZM74.8765 4.76125C74.8664 4.77104 74.8359 4.7743 74.8123 4.76451C74.7852 4.75472 74.7953 4.74492 74.8326 4.74492C74.8698 4.74166 74.8901 4.75145 74.8765 4.76125ZM72.4271 4.79716C72.4034 4.80368 72.3628 4.80368 72.3425 4.79716C72.3189 4.78736 72.3358 4.78083 72.3831 4.78083C72.4305 4.78083 72.4474 4.78736 72.4271 4.79716ZM74.5924 4.79716C74.5687 4.80368 74.5281 4.80368 74.5078 4.79716C74.4841 4.78736 74.501 4.78083 74.5484 4.78083C74.5957 4.78083 74.6126 4.78736 74.5924 4.79716ZM72.6978 4.8298C72.6741 4.83633 72.6267 4.83633 72.5963 4.8298C72.5624 4.82001 72.5827 4.81348 72.6369 4.81348C72.6944 4.81348 72.7181 4.82001 72.6978 4.8298ZM74.3217 4.8298C74.298 4.83633 74.2506 4.83633 74.2202 4.8298C74.1864 4.82001 74.2067 4.81348 74.2608 4.81348C74.3183 4.81348 74.342 4.82001 74.3217 4.8298ZM69.0236 4.91141C69.0135 4.93753 69.0033 4.92773 69.0033 4.89183C69 4.85592 69.0101 4.83633 69.0203 4.84939C69.0304 4.85918 69.0338 4.88856 69.0236 4.91141ZM72.9346 4.86245C72.9109 4.86897 72.8635 4.86897 72.8331 4.86245C72.7993 4.85265 72.8196 4.84612 72.8737 4.84612C72.9312 4.84612 72.9549 4.85265 72.9346 4.86245ZM74.051 4.86245C74.0274 4.86897 73.98 4.86897 73.9495 4.86245C73.9157 4.85265 73.936 4.84612 73.9901 4.84612C74.0477 4.84612 74.0713 4.85265 74.051 4.86245ZM68.3436 5.61654C68.4925 5.96257 68.5094 5.98542 68.5906 5.97563C68.7767 5.95604 68.9086 6.26943 68.7733 6.41307C68.709 6.48162 68.7056 6.47183 69 7.25204C69.0744 7.4577 69.1319 7.62745 69.1251 7.63725C69.1184 7.64378 69.0135 7.38915 68.8985 7.07249C68.7801 6.75584 68.6684 6.49468 68.6481 6.48815C68.6278 6.48162 68.5703 6.46857 68.5196 6.45877C68.3369 6.4196 68.2861 6.1715 68.435 6.05071C68.4823 6.0148 68.4756 5.98542 68.3842 5.79282C68.2455 5.49575 68.0865 5.13013 68.0865 5.10402C68.0899 5.06158 68.1914 5.26398 68.3436 5.61654ZM68.8545 5.40108C68.8443 5.4272 68.8342 5.41741 68.8342 5.3815C68.8308 5.34559 68.841 5.326 68.8511 5.33906C68.8613 5.34885 68.8646 5.37823 68.8545 5.40108ZM68.7868 5.6296C68.7767 5.65571 68.7665 5.64592 68.7665 5.61001C68.7631 5.5741 68.7733 5.55451 68.7834 5.56757C68.7936 5.57737 68.797 5.60675 68.7868 5.6296ZM69 6.45877C69 6.4653 68.9695 6.45877 68.9323 6.43919C68.8951 6.4196 68.8646 6.39675 68.8646 6.38695C68.8646 6.38043 68.8951 6.38695 68.9323 6.40654C68.9695 6.42613 69 6.44898 69 6.45877ZM69.5244 7.24551C69.9033 7.65357 70.2044 7.99634 70.201 7.9996C70.1942 8.00613 70.1367 7.95717 70.0724 7.88535C69.274 7.02353 68.797 6.49795 68.797 6.48162C68.797 6.45551 68.7462 6.40328 69.5244 7.24551ZM69.9303 6.93865C69.9506 6.95497 69.7679 6.87336 69.5244 6.74931C69.2841 6.62853 69.071 6.51427 69.0507 6.49468C69.0338 6.47836 69.2165 6.56324 69.4567 6.68402C69.7003 6.80481 69.9134 6.91906 69.9303 6.93865ZM70.3194 7.14105C70.3194 7.15084 70.245 7.12146 70.1502 7.07576C70.0589 7.03006 69.9811 6.98435 69.9811 6.97782C69.9811 6.96803 70.0589 6.99741 70.1502 7.04311C70.245 7.08882 70.3194 7.13452 70.3194 7.14105ZM70.7592 7.36956C70.7592 7.37935 70.6679 7.34345 70.5562 7.28795C70.4446 7.23245 70.3532 7.18022 70.3532 7.17369C70.3532 7.1639 70.4446 7.19981 70.5562 7.2553C70.6679 7.3108 70.7592 7.36303 70.7592 7.36956ZM70.1502 8.13345C70.1232 8.14977 70.0623 8.16936 70.0149 8.18242C69.9439 8.19874 69.9473 8.19221 70.0318 8.15303C70.1401 8.10407 70.2348 8.08775 70.1502 8.13345ZM68.4181 8.19221C68.3842 8.19874 68.3301 8.19874 68.2996 8.19221C68.2658 8.18242 68.2929 8.17589 68.3572 8.17589C68.4214 8.17589 68.4485 8.18242 68.4181 8.19221ZM68.6718 8.22485C68.6481 8.23138 68.6007 8.23138 68.5703 8.22485C68.5365 8.21506 68.5568 8.20853 68.6109 8.20853C68.6684 8.20853 68.6921 8.21506 68.6718 8.22485ZM69.8796 8.23465C69.8525 8.25097 69.8153 8.26729 69.795 8.26729C69.7781 8.26729 69.7849 8.25097 69.8119 8.23465C69.839 8.21832 69.8796 8.202 69.8965 8.202C69.9168 8.202 69.9067 8.21832 69.8796 8.23465ZM68.9255 8.2575C68.8917 8.26403 68.8376 8.26403 68.8071 8.2575C68.7733 8.2477 68.8004 8.24118 68.8646 8.24118C68.9289 8.24118 68.956 8.2477 68.9255 8.2575ZM69.4635 8.79614C69.4533 8.81899 69.4465 8.80267 69.4465 8.75696C69.4465 8.71126 69.4533 8.69494 69.4635 8.71452C69.4702 8.73738 69.4702 8.77655 69.4635 8.79614ZM69.4973 8.97568C69.4871 9.00833 69.4804 8.98874 69.4804 8.93651C69.4804 8.88101 69.4871 8.85816 69.4973 8.87775C69.5041 8.9006 69.5041 8.9463 69.4973 8.97568ZM69.5311 9.2042C69.521 9.23684 69.5142 9.21725 69.5142 9.16502C69.5142 9.10953 69.521 9.08667 69.5311 9.10626C69.5379 9.12911 69.5379 9.17482 69.5311 9.2042ZM69.565 9.40006C69.5548 9.43271 69.548 9.41312 69.548 9.36089C69.548 9.30539 69.5548 9.28254 69.565 9.30213C69.5717 9.32498 69.5717 9.37068 69.565 9.40006ZM69.6563 9.76895C69.6698 9.88321 69.6664 9.92564 69.6461 9.88321C69.6292 9.8473 69.6089 9.7363 69.5954 9.63837C69.5819 9.52411 69.5853 9.48168 69.6056 9.52411C69.6225 9.56002 69.6428 9.67102 69.6563 9.76895ZM69.7003 10.0856C69.6901 10.1182 69.6834 10.0987 69.6834 10.0464C69.6834 9.99093 69.6901 9.96808 69.7003 9.98767C69.707 10.0105 69.707 10.0562 69.7003 10.0856ZM69.7341 10.3141C69.724 10.3468 69.7172 10.3206 69.7172 10.2586C69.7172 10.1966 69.724 10.1705 69.7341 10.1999C69.7409 10.2325 69.7409 10.2847 69.7341 10.3141ZM69.7679 10.51C69.7578 10.5426 69.751 10.523 69.751 10.4708C69.751 10.4153 69.7578 10.3925 69.7679 10.4121C69.7747 10.4349 69.7747 10.4806 69.7679 10.51ZM69.8018 10.7059C69.7916 10.7385 69.7849 10.7189 69.7849 10.6667C69.7849 10.6112 69.7916 10.5883 69.8018 10.6079C69.8085 10.6308 69.8085 10.6765 69.8018 10.7059ZM69.8356 10.9017C69.8255 10.9344 69.8187 10.9148 69.8187 10.8625C69.8187 10.8071 69.8255 10.7842 69.8356 10.8038C69.8424 10.8266 69.8424 10.8723 69.8356 10.9017Z" fill="#DCDCDC"/>
<path d="M87.4281 0.0506105C87.2488 0.106107 87.0864 0.243214 87.0018 0.409703L86.9308 0.550075V6.25311C86.9308 11.7635 86.9342 11.9561 86.9917 11.9561C87.2454 11.9561 89.6103 11.522 90.7301 11.2673C91.0413 11.1988 91.3018 11.14 91.312 11.14C91.3188 11.14 91.3323 9.94523 91.3391 8.48601C91.3492 6.09315 91.356 5.81241 91.4101 5.59369C91.6977 4.42174 92.4251 3.86352 93.8426 3.72641C94.2757 3.68397 94.7155 3.70682 95.1857 3.79496C96.265 3.99409 96.8875 4.55232 97.1717 5.5741L97.263 5.90055L97.2765 7.62093C97.2833 8.57089 97.2968 9.34457 97.3036 9.34457C97.3138 9.34457 97.625 9.22705 97.9938 9.08341C99.1102 8.6525 99.9831 8.28361 101.049 7.78741L101.648 7.50667V6.88315C101.648 5.89728 101.715 5.48596 101.955 5.01588C102.253 4.43153 102.791 4.04633 103.559 3.87657C104.151 3.74273 105.112 3.75252 105.697 3.8929C106.039 3.97777 106.523 4.20955 106.743 4.39563L106.912 4.53926L107.521 4.1312C108.282 3.61542 109.155 2.98864 109.848 2.45979L110.383 2.04847L110.062 1.7514C108.793 0.585984 106.753 0.00164336 104.236 0.0865197C102.372 0.148545 100.924 0.51743 99.8274 1.21276C99.6549 1.32376 99.506 1.4119 99.4993 1.4119C99.4891 1.4119 99.3403 1.32049 99.1677 1.20623C98.3761 0.693712 97.5066 0.370529 96.3698 0.17466C94.8339 -0.0897619 92.8277 -0.014679 91.4744 0.354207L91.2951 0.403174L91.1327 0.243214C91.0143 0.128958 90.9297 0.0734618 90.8147 0.047346C90.5948 -0.00815006 87.6108 -0.00162111 87.4281 0.0506105Z" fill="#DCDCDC"/>
<path d="M56.472 0.0767295C55.3995 0.184457 54.2966 0.504376 53.4609 0.941815C51.5698 1.94074 50.3315 3.6905 49.8037 6.10621C49.6921 6.61221 49.6007 7.25857 49.638 7.28795C49.6515 7.30427 49.8545 7.36956 50.0879 7.43485C50.8931 7.66337 53.5252 8.45337 53.7248 8.52845C53.7722 8.54477 53.8196 8.5611 53.8263 8.5611C53.8297 8.5611 53.8466 8.42399 53.8602 8.2575C53.9583 6.93539 54.2492 5.95931 54.7669 5.21501C54.9631 4.931 55.4435 4.48703 55.7175 4.3336C56.3265 3.9941 56.7223 3.8929 57.5208 3.87005C58.397 3.84393 58.8368 3.91901 59.4221 4.18997C59.7164 4.33034 59.8179 4.39563 60.0345 4.60455C60.2544 4.82001 60.322 4.91794 60.5182 5.28356C60.64 5.51861 60.8092 5.79609 60.8938 5.90381C61.2422 6.35105 61.7328 6.59915 62.4094 6.6677C62.6936 6.69382 64.71 6.79828 64.9773 6.79828C65.0517 6.79828 65.0517 6.79502 65.0314 6.32493C64.9908 5.46638 64.8386 4.67311 64.5848 3.99083C64.2634 3.13554 63.6105 2.19537 62.9677 1.66979C61.9054 0.801443 60.4675 0.262805 58.7624 0.0897874C58.2414 0.0375558 56.9355 0.0277624 56.472 0.0767295Z" fill="#DCDCDC"/>
<path d="M75.5092 1.05933C74.5382 2.00276 74.4604 2.08764 74.4942 2.15293C74.5179 2.19863 74.5653 2.23128 74.616 2.23128L74.7006 2.2378L74.616 2.25086C74.5382 2.26718 74.4841 2.31289 74.4807 2.36512C74.4807 2.41409 74.9138 2.61975 75.0254 2.61975C75.0897 2.62301 75.5836 2.71442 76.1216 2.82541L77.1027 3.02781L77.1094 3.3869C77.1128 3.58603 77.1162 3.76231 77.1196 3.7819C77.1196 3.80149 77.1805 3.84393 77.2549 3.87657C77.3327 3.90921 77.4004 3.95165 77.4139 3.96471C77.4241 3.98103 77.3699 3.96471 77.2921 3.9288C77.2177 3.88963 77.1433 3.86025 77.1297 3.86025C77.1162 3.86025 77.1027 4.16384 77.1061 4.53926V5.215L77.5526 5.2248L77.9958 5.23459L78.0094 4.93099L78.0195 4.6274L78.0263 4.92773L78.033 5.23133H78.8247C79.2611 5.23133 79.6265 5.24112 79.6333 5.25418C79.6401 5.2705 79.5893 5.53819 79.5183 5.85158C79.4438 6.16497 79.3795 6.49794 79.3728 6.58935C79.3626 6.68075 79.3423 6.78848 79.322 6.83418C79.3017 6.87662 79.2713 6.99741 79.251 7.09861C79.2138 7.28142 79.207 7.28794 79.1055 7.28794C79.0446 7.29121 78.5744 7.29447 78.0533 7.29774L77.1128 7.30427L77.1162 7.8429C77.1162 8.32278 77.123 8.38481 77.1771 8.42072C77.3192 8.51212 77.3632 8.56109 77.2481 8.4958C77.1771 8.45663 77.1196 8.43377 77.1196 8.44357C77.1027 8.62311 77.1196 9.41312 77.1365 9.41638C77.15 9.41965 77.282 9.3413 77.4275 9.24336C77.6947 9.06708 77.6947 9.06708 77.6947 8.92018C77.6947 8.78307 77.6846 8.76675 77.5425 8.68187C77.4579 8.62964 77.3902 8.58068 77.3902 8.57088C77.3902 8.56109 77.4308 8.58068 77.485 8.61006C77.5357 8.6427 77.6068 8.6884 77.6474 8.71452C77.7083 8.75043 77.7319 8.75043 77.8233 8.70473L77.9316 8.65576L77.9383 8.35543L77.9451 8.0551L77.962 8.36196C77.9755 8.5513 77.9958 8.67535 78.0195 8.68187C78.0432 8.6884 78.253 8.40113 78.4898 8.03877C78.7266 7.67968 78.9262 7.38588 78.9364 7.38588C78.9533 7.38588 78.9871 7.33365 78.4965 8.08121C78.1007 8.69167 78.0973 8.6982 78.1515 8.77981C78.1887 8.83204 78.2022 8.89733 78.1887 8.95609C78.1718 9.04423 78.2056 9.07361 79.1732 9.73956C80.0257 10.3239 80.1881 10.4218 80.2389 10.3925C80.2727 10.3729 80.3471 10.3565 80.408 10.3565C80.5163 10.3565 80.5332 10.3337 81.4433 8.95283C81.9947 8.11712 82.3635 7.52625 82.35 7.50014C82.3398 7.47402 82.306 7.45117 82.2722 7.45117C82.2282 7.45117 82.2248 7.44137 82.2552 7.41199C82.2789 7.38914 82.2958 7.34344 82.2958 7.30427C82.2958 7.26836 82.3195 7.20633 82.3466 7.16716C82.3737 7.12799 82.3872 7.06922 82.377 7.03658C82.3567 6.98435 82.3601 6.98108 82.4007 7.03005C82.4278 7.05943 82.509 7.09208 82.5834 7.10187C82.7154 7.11819 82.7221 7.11493 82.9116 6.90274C83.0165 6.78195 83.348 6.42286 83.6457 6.09968L84.187 5.51534L84.1092 5.3162C83.9265 4.85265 83.4157 3.92554 83.3412 3.92554C83.3209 3.92554 83.3142 3.91248 83.3243 3.89616C83.348 3.86025 82.9454 3.31835 82.6308 2.96252C82.3195 2.60669 81.829 2.14313 81.7985 2.17578C81.785 2.18884 81.626 2.5969 81.4433 3.0833L81.1151 3.96798L81.1895 4.05938C81.2301 4.11161 81.3012 4.15405 81.3486 4.15405C81.4331 4.16058 81.4331 4.16058 81.3553 4.18017C81.2843 4.20302 81.2098 4.29442 81.1591 4.41847C81.1456 4.46091 81.1117 4.46744 81.0069 4.44785C80.8242 4.41521 80.7667 4.34013 80.7599 4.13446C80.7565 4.04632 80.6381 3.93207 79.6265 3.07025C78.5304 2.13661 78.4965 2.10723 78.4018 2.13987C78.2902 2.18231 78.1481 2.12355 78.1142 2.02561C78.1007 1.97991 78.0567 1.96685 77.9045 1.96032L77.7116 1.9538L77.8876 1.944C78.0398 1.93094 78.0635 1.92115 78.0804 1.84933C78.0939 1.80363 78.1481 1.7416 78.2022 1.71222C78.2563 1.68284 78.3071 1.63388 78.3172 1.60776C78.3274 1.57185 78.3308 1.57185 78.3341 1.61429C78.3341 1.64693 78.3544 1.67305 78.3781 1.67305C78.4018 1.67305 78.4593 1.71222 78.5101 1.75793C78.5811 1.82322 78.615 1.83627 78.6623 1.81016C78.7537 1.76446 79.3897 1.59797 79.4066 1.61755C79.4168 1.62735 79.3795 1.64041 79.3288 1.65346C79.2781 1.66652 79.0886 1.71875 78.9059 1.77425C78.5947 1.87218 78.5811 1.87871 78.5642 1.97665C78.5574 2.03541 78.5507 2.08111 78.5541 2.08437C78.5574 2.08764 80.6685 3.88636 80.7667 3.96798C80.8242 4.02021 80.8512 4.02674 80.8817 3.99736C80.9054 3.9745 80.9527 3.95818 80.9933 3.95818C81.0508 3.95818 81.0914 3.87657 81.2775 3.37711C81.3959 3.06045 81.5515 2.64586 81.6226 2.45979C81.697 2.27371 81.7444 2.11049 81.7376 2.09417C81.7004 2.04194 81.2301 1.68284 80.9324 1.48698L80.6381 1.28784L80.3573 1.36293C80.205 1.40536 79.9885 1.47065 79.8769 1.5033C79.7652 1.53921 79.6198 1.57512 79.5555 1.58817C79.4337 1.60776 79.9716 1.43474 80.3674 1.32375L80.584 1.26499L80.3505 1.13115C79.9987 0.928751 79.613 0.752469 79.2341 0.612097C79.048 0.546807 78.8721 0.478253 78.845 0.465195C78.8179 0.452137 78.7029 0.416228 78.5913 0.386848C78.4796 0.357468 78.3612 0.324823 78.3308 0.31503C78.28 0.301972 78.2699 0.321559 78.2631 0.422757L78.2597 0.546807L78.2462 0.432551C78.236 0.370526 78.2191 0.308501 78.2056 0.292178C78.1582 0.246476 77.2042 0.0734586 76.8828 0.0538717L76.5614 0.0342849L75.5092 1.05933ZM78.2936 1.14094C78.2868 1.2095 78.28 1.16053 78.28 1.03648C78.28 0.909164 78.2868 0.856932 78.2936 0.912428C78.3003 0.971189 78.3003 1.07565 78.2936 1.14094ZM78.483 1.52615C78.4729 1.55553 78.4559 1.57185 78.4492 1.56206C78.439 1.55226 78.4424 1.53268 78.4559 1.51309C78.4864 1.46086 78.5067 1.47065 78.483 1.52615ZM77.5865 1.9897C77.5323 1.99623 77.4511 1.99623 77.4004 1.9897C77.3463 1.98318 77.3902 1.97665 77.4917 1.97665C77.5932 1.97665 77.6372 1.98318 77.5865 1.9897ZM77.1636 2.02235C77.1196 2.02888 77.0452 2.02888 76.9944 2.02235C76.9403 2.01582 76.9775 2.00929 77.0688 2.00929C77.1636 2.00929 77.2042 2.01582 77.1636 2.02235ZM76.7576 2.05499C76.7136 2.06152 76.6392 2.06152 76.5884 2.05499C76.5343 2.04846 76.5715 2.04194 76.6629 2.04194C76.7576 2.04194 76.7982 2.04846 76.7576 2.05499ZM76.3347 2.08764C76.3009 2.09417 76.24 2.09417 76.1994 2.08764C76.1554 2.08111 76.1824 2.07458 76.2569 2.07458C76.3313 2.07132 76.3651 2.07785 76.3347 2.08764ZM75.8272 2.15293C75.7934 2.15946 75.7393 2.15946 75.7088 2.15293C75.675 2.14313 75.702 2.13661 75.7663 2.13661C75.8306 2.13661 75.8577 2.14313 75.8272 2.15293ZM75.4382 2.18557C75.3942 2.1921 75.3197 2.1921 75.269 2.18557C75.2149 2.17904 75.2521 2.17251 75.3434 2.17251C75.4382 2.17251 75.4787 2.17904 75.4382 2.18557ZM74.9983 2.21822C74.9544 2.22475 74.8799 2.22475 74.8292 2.21822C74.775 2.21169 74.8123 2.20516 74.9036 2.20516C74.9983 2.20516 75.0389 2.21169 74.9983 2.21822ZM78.2936 2.31615C78.2834 2.3488 78.2766 2.32921 78.2766 2.27698C78.2766 2.22148 78.2834 2.19863 78.2936 2.21822C78.3003 2.24107 78.3003 2.28677 78.2936 2.31615ZM78.2597 2.60995C78.2496 2.6426 78.2428 2.62301 78.2428 2.57078C78.2428 2.51528 78.2496 2.49243 78.2597 2.51202C78.2665 2.53487 78.2665 2.58057 78.2597 2.60995ZM78.2259 2.90376C78.2157 2.9364 78.209 2.91681 78.209 2.86458C78.209 2.80909 78.2157 2.78624 78.2259 2.80582C78.2327 2.82867 78.2327 2.87438 78.2259 2.90376ZM78.1921 3.21388C78.1819 3.23673 78.1751 3.22041 78.1751 3.17471C78.1751 3.12901 78.1819 3.11268 78.1921 3.13227C78.1988 3.15512 78.1988 3.1943 78.1921 3.21388ZM78.0906 3.86678C78.0804 3.88963 78.0736 3.87331 78.0736 3.8276C78.0736 3.7819 78.0804 3.76558 78.0906 3.78516C78.0973 3.80802 78.0973 3.84719 78.0906 3.86678ZM83.2025 3.94839C83.1687 3.95492 83.1146 3.95492 83.0841 3.94839C83.0503 3.93859 83.0774 3.93207 83.1416 3.93207C83.2059 3.93207 83.233 3.93859 83.2025 3.94839ZM82.915 3.98103C82.8913 3.98756 82.8439 3.98756 82.8135 3.98103C82.7796 3.97124 82.7999 3.96471 82.8541 3.96471C82.9116 3.96471 82.9353 3.97124 82.915 3.98103ZM77.9417 4.1312C78.033 4.07897 78.0635 4.0757 78.1345 4.10835C78.1785 4.1312 78.2394 4.18017 78.2699 4.21608C78.3003 4.25525 78.3714 4.28463 78.4559 4.29442L78.5913 4.30748L78.4559 4.31401C78.3375 4.31727 78.3138 4.3336 78.2699 4.425C78.2428 4.4805 78.1751 4.54905 78.121 4.57517C78.0364 4.61434 78.0161 4.61108 77.9248 4.54579L77.8233 4.47397L77.7353 4.55232C77.6 4.6731 77.1534 5.00934 77.1534 4.98976C77.1534 4.97996 77.3057 4.85591 77.4917 4.70901C77.7861 4.4805 77.8267 4.43479 77.7962 4.38256C77.7725 4.34013 77.7725 4.31401 77.7962 4.30095C77.8605 4.26178 77.8301 4.22587 77.644 4.12467C77.5425 4.06917 77.4579 4.01368 77.4579 4.00388C77.4579 3.99409 77.5425 4.03326 77.644 4.08876L77.8301 4.19322L77.9417 4.1312ZM82.6105 4.01368C82.5868 4.02021 82.5394 4.02021 82.509 4.01368C82.4752 4.00388 82.4955 3.99736 82.5496 3.99736C82.6071 3.99736 82.6308 4.00388 82.6105 4.01368ZM82.2857 4.04306C82.2755 4.05285 82.2451 4.05612 82.2214 4.04632C82.1944 4.03653 82.2045 4.02674 82.2417 4.02674C82.2789 4.02347 82.2992 4.03326 82.2857 4.04306ZM81.9677 4.11161C81.944 4.11814 81.9034 4.11814 81.8831 4.11161C81.8594 4.10182 81.8763 4.09529 81.9237 4.09529C81.9711 4.09529 81.988 4.10182 81.9677 4.11161ZM81.697 4.14426C81.6733 4.15079 81.626 4.15079 81.5955 4.14426C81.5617 4.13446 81.582 4.12793 81.6361 4.12793C81.6936 4.12793 81.7173 4.13446 81.697 4.14426ZM80.3268 4.24219C80.2355 4.24872 80.0934 4.24872 80.0054 4.24219C79.9141 4.23566 79.9885 4.2324 80.1644 4.2324C80.3404 4.2324 80.4148 4.23566 80.3268 4.24219ZM79.3795 4.27484C79.2916 4.28136 79.1393 4.28136 79.0412 4.27484C78.9431 4.26831 79.0142 4.26504 79.2002 4.26504C79.3863 4.26504 79.4675 4.26831 79.3795 4.27484ZM77.6169 4.36951C77.6068 4.3793 77.5763 4.38256 77.5526 4.37277C77.5256 4.36298 77.5357 4.35318 77.5729 4.35318C77.6101 4.34992 77.6304 4.35971 77.6169 4.36951ZM77.3124 4.43479C77.3023 4.44459 77.2718 4.44785 77.2481 4.43806C77.2211 4.42827 77.2312 4.41847 77.2684 4.41847C77.3057 4.41521 77.326 4.425 77.3124 4.43479ZM80.425 5.1236C80.1949 5.47943 79.887 5.95277 79.7415 6.17802C79.4878 6.5665 79.366 6.73625 79.4506 6.57955C79.4709 6.53712 79.728 6.14211 80.019 5.69815C80.3099 5.25091 80.6076 4.79062 80.6855 4.66984C80.7599 4.54905 80.8275 4.45765 80.8343 4.46418C80.8411 4.4707 80.6584 4.76777 80.425 5.1236ZM81.2301 4.61434C81.2606 4.66984 81.2809 4.72207 81.2741 4.7286C81.264 4.73513 81.2335 4.68942 81.2031 4.6274C81.132 4.48703 81.1591 4.47397 81.2301 4.61434ZM81.4128 5.01914C81.4128 5.03546 81.3925 5.01587 81.3655 4.97017C81.3384 4.92447 81.3181 4.87223 81.3181 4.85591C81.3181 4.83633 81.3384 4.85918 81.3655 4.90488C81.3925 4.95058 81.4128 4.99955 81.4128 5.01914ZM81.5312 5.25418C81.5617 5.31294 81.5786 5.36191 81.5718 5.36191C81.5515 5.36191 81.4501 5.18236 81.4501 5.14645C81.4501 5.11054 81.467 5.13666 81.5312 5.25418ZM81.7173 5.63939C81.7173 5.65571 81.697 5.63612 81.67 5.59042C81.6429 5.54472 81.6226 5.49248 81.6226 5.47616C81.6226 5.45658 81.6429 5.47943 81.67 5.52513C81.697 5.57083 81.7173 5.6198 81.7173 5.63939ZM81.8527 5.90707C81.8932 5.98542 81.9169 6.04744 81.9068 6.04744C81.8899 6.04744 81.7545 5.80261 81.7545 5.7667C81.7545 5.73079 81.7748 5.76017 81.8527 5.90707ZM82.0218 6.25964C82.0218 6.27596 82.0015 6.25637 81.9744 6.21067C81.9474 6.16497 81.9271 6.11273 81.9271 6.09641C81.9271 6.07682 81.9474 6.09968 81.9744 6.14538C82.0015 6.19108 82.0218 6.24005 82.0218 6.25964ZM82.3263 6.87989C82.3263 6.89621 82.2654 6.80154 82.1944 6.66769C82.1233 6.53385 82.0624 6.40654 82.0624 6.39021C82.0624 6.37063 82.1233 6.46856 82.1944 6.60241C82.2654 6.73625 82.3263 6.8603 82.3263 6.87989ZM81.0339 7.86249C81.0238 7.87229 80.9933 7.87555 80.9696 7.86576C80.9426 7.85596 80.9527 7.84617 80.9899 7.84617C81.0272 7.8429 81.0475 7.8527 81.0339 7.86249ZM80.0866 8.18894C80.0765 8.19873 80.046 8.202 80.0224 8.1922C79.9953 8.18241 80.0054 8.17262 80.0427 8.17262C80.0799 8.16935 80.1002 8.17915 80.0866 8.18894ZM79.2002 8.4958C79.163 8.51212 79.1089 8.52518 79.0818 8.52518C79.0514 8.52518 79.0548 8.51212 79.0987 8.4958C79.136 8.47948 79.1901 8.46642 79.2172 8.46642C79.2476 8.46642 79.2442 8.47948 79.2002 8.4958Z" fill="#DCDCDC"/>
<path d="M1.69163 0.164867C1.015 0.357471 0.521056 0.762266 0.219953 1.38578C0.0034301 1.82975 0.0169628 1.36293 0.0237291 9.1487L0.0338787 16.2359L0.328215 15.88C1.21461 14.806 2.59833 13.4807 3.96851 12.4001L4.41509 12.0443V11.6917V11.3359H4.90565H5.39283L5.75821 11.0845C7.7915 9.68407 10.2578 8.39787 12.8561 7.38262L13.4989 7.13125L13.5429 6.90927C13.6173 6.51753 13.6342 5.25418 13.57 4.71228C13.323 2.67525 12.3182 1.27805 10.5928 0.576191C10.2037 0.419496 9.79434 0.308504 9.19213 0.197512C8.79968 0.125694 8.75232 0.125694 5.34546 0.1159C2.15175 0.109371 1.88109 0.112636 1.69163 0.164867ZM8.13658 3.9386C8.71172 4.12141 9.05004 4.4805 9.17183 5.0322C9.23273 5.30968 9.23273 6.00175 9.17183 6.27923C9.08725 6.66117 8.8572 7.00067 8.56963 7.17696C8.49858 7.21939 8.32266 7.29448 8.18056 7.34671L7.91668 7.43485L6.18449 7.44464L4.44892 7.45444V5.65571V3.85699L6.20141 3.86678C7.78135 3.87984 7.96742 3.88637 8.13658 3.9386Z" fill="#DCDCDC"/>
<path d="M110.427 3.09963C109.804 3.58278 108.813 4.2977 108.032 4.82654C107.524 5.16605 107.368 5.2901 107.385 5.326C107.453 5.47944 107.534 5.82547 107.568 6.09642C107.588 6.29555 107.602 7.9637 107.602 10.8462C107.602 15.7527 107.595 15.5601 107.815 16.0008C107.984 16.3338 108.231 16.5689 108.597 16.7386C109.124 16.9867 109.172 16.9932 110.674 17.0063L112 17.0193V11.7962C112 8.46643 111.986 6.42287 111.966 6.15518C111.888 5.26724 111.696 4.40542 111.418 3.72641C111.249 3.31182 110.961 2.77645 110.9 2.76339C110.884 2.76013 110.67 2.91029 110.427 3.09963Z" fill="#DCDCDC"/>
<path d="M27.8943 5.23457C27.5695 5.24763 26.9639 5.28354 26.5478 5.31292L25.7934 5.36515L25.5667 5.58714C25.1032 6.0409 24.2642 6.31512 22.9041 6.45549C20.5122 6.70032 18.9763 7.1247 17.8497 7.84615C17.4538 8.09752 16.9024 8.61983 16.6622 8.96587C16.3238 9.45554 16.0769 10.0464 15.9551 10.6601C15.7893 11.4828 15.7893 12.2303 15.9517 13.0432C16.3306 14.9333 17.7076 16.2652 19.7815 16.7549C20.563 16.941 20.8472 16.9671 21.923 16.9638C22.9988 16.9638 23.4962 16.9181 24.5111 16.7255C27.5357 16.151 29.393 14.5285 29.9377 11.9822C30.1001 11.2216 30.1035 11.1498 30.117 8.09425L30.1306 5.19867L29.3085 5.20193C28.8551 5.20519 28.2191 5.22152 27.8943 5.23457ZM25.9896 9.44901C25.9659 10.7156 25.9151 11.0551 25.6411 11.6721C25.093 12.9094 23.8717 13.5982 22.2275 13.5982C21.4561 13.5982 20.9994 13.461 20.6239 13.115C20.2585 12.7788 20.0453 12.2401 20.0453 11.646C20.0453 11.1204 20.2111 10.696 20.563 10.3337C21.0129 9.87339 21.5509 9.62203 22.559 9.40984C23.733 9.16174 24.7378 8.88426 25.4922 8.59698C25.7257 8.50884 25.9354 8.43702 25.9625 8.43376C26.0031 8.43049 26.0065 8.59045 25.9896 9.44901Z" fill="#DCDCDC"/>
<path d="M32.783 5.52839C32.8236 6.08988 33.0029 6.77216 33.2127 7.17369C33.6491 8.00613 34.4374 8.71778 35.4896 9.22704C36.3692 9.65142 37.2759 9.91911 38.7205 10.177C41.1056 10.6046 42.5029 11.1727 42.8175 11.8386C42.8581 11.9235 42.8818 12.0508 42.8818 12.1879C42.8852 13.0073 42.2593 13.5068 41.0481 13.6537C40.5237 13.719 39.3024 13.683 38.8558 13.5884C38.1183 13.4349 37.6311 13.1999 37.259 12.8082C37.0424 12.5829 36.8259 12.1879 36.7583 11.8909C36.7346 11.7929 36.694 11.6721 36.6703 11.6264C36.606 11.4991 36.4064 11.3457 36.2609 11.3065C36.0884 11.2575 32.9657 11.2575 32.7932 11.3032C32.5293 11.3751 32.3263 11.6362 32.3263 11.9072C32.3263 12.1096 32.4143 12.6645 32.4988 12.9747C32.7729 14.0128 33.3074 14.8223 34.1498 15.4785C34.7588 15.9519 35.1952 16.1967 35.8719 16.4415C36.8834 16.8104 38.0743 16.9834 39.5764 16.9834C41.9819 16.9834 43.8494 16.559 45.179 15.7103C45.5647 15.4622 46.1161 14.9562 46.3732 14.6102C46.8469 13.9768 47.1378 13.2554 47.263 12.3968C47.3273 11.9627 47.3273 11.0649 47.263 10.7058C47.0702 9.6351 46.4646 8.6982 45.6222 8.16282C44.5971 7.50993 42.8784 6.93211 40.6624 6.49141C39.4005 6.24005 38.7915 6.06703 38.1961 5.78628C37.8612 5.62959 37.8544 5.62633 37.2319 5.56104C36.8868 5.52513 36.1865 5.45657 35.6756 5.41413C34.8332 5.33905 34.4442 5.31294 33.1586 5.24438L32.7593 5.22153L32.783 5.52839Z" fill="#DCDCDC"/>
<path d="M83.463 6.34124C83.0739 6.76562 82.7492 7.13777 82.7424 7.17041C82.7356 7.20632 82.7559 7.22264 82.8101 7.22264C82.8811 7.22591 82.8811 7.22917 82.827 7.25855C82.783 7.2814 82.7695 7.31731 82.783 7.36628C82.8067 7.46095 82.6071 7.59806 82.4853 7.56868C82.4108 7.55236 82.3432 7.64703 81.4669 8.97567C80.5602 10.3467 80.5298 10.4022 80.5907 10.4512C80.7023 10.5393 80.5941 10.807 80.4452 10.8168C80.4114 10.8201 80.3606 10.8234 80.3336 10.8266C80.3065 10.8266 80.2456 10.794 80.2016 10.7515C80.1407 10.6895 80.1272 10.6471 80.1407 10.5622L80.161 10.4545L79.1664 9.76893C78.6183 9.39352 78.1582 9.08339 78.1379 9.08339C78.121 9.08339 78.0804 9.11604 78.0533 9.15521C78.0229 9.19439 77.9992 9.21071 77.9992 9.18786C77.9992 9.16827 77.962 9.14868 77.918 9.14868C77.8706 9.14868 77.8233 9.13236 77.8131 9.11604C77.803 9.09645 77.7725 9.08339 77.7522 9.08339C77.7218 9.08339 77.194 9.42616 77.1297 9.48819C77.1229 9.49472 77.1162 10.0203 77.1162 10.6536L77.1128 11.8092L77.5966 12.1291L78.0838 12.4491L79.3017 12.4327C79.9716 12.423 80.6651 12.4164 80.8411 12.4132C81.017 12.4132 81.247 12.4001 81.3553 12.387L81.5448 12.3642L82.2586 11.646C82.6511 11.251 82.9725 10.9148 82.9725 10.8952C82.9725 10.8789 83.0232 10.8299 83.0807 10.7907C83.1382 10.7515 83.5273 10.3761 83.9434 9.95827C84.5862 9.31191 84.6979 9.18459 84.6979 9.09972C84.6979 9.04748 84.708 8.92344 84.7182 8.82877C84.7317 8.71777 84.7249 8.63943 84.6979 8.61005C84.664 8.57087 84.664 8.56108 84.6979 8.56108C84.7858 8.56108 84.7013 7.48707 84.5592 6.81459C84.4441 6.25636 84.2513 5.60673 84.1972 5.58061C84.1836 5.57409 83.8555 5.91686 83.463 6.34124ZM83.0976 7.17694C83.0875 7.18674 83.057 7.19 83.0333 7.18021C83.0063 7.17041 83.0164 7.16062 83.0536 7.16062C83.0909 7.15735 83.1112 7.16715 83.0976 7.17694ZM82.9725 7.53603C82.9725 7.54256 82.942 7.53603 82.9048 7.51645C82.8676 7.49686 82.8371 7.47401 82.8371 7.46422C82.8371 7.45769 82.8676 7.46422 82.9048 7.4838C82.942 7.50339 82.9725 7.52624 82.9725 7.53603ZM83.3209 7.73843C83.3886 7.78413 83.4461 7.82657 83.4461 7.8331C83.4461 7.84289 83.4055 7.82331 83.3548 7.79066C83.0739 7.61765 83.0063 7.57194 83.0063 7.55889C83.0063 7.54256 83.0435 7.56215 83.3209 7.73843ZM83.7776 8.01591C83.8927 8.08447 83.9874 8.14975 83.9874 8.15628C83.9874 8.17587 83.9773 8.16934 83.6931 7.99632C83.5747 7.92777 83.4799 7.86248 83.4799 7.85595C83.4799 7.83637 83.4901 7.84289 83.7776 8.01591ZM84.4205 8.40765C84.5355 8.47947 84.6302 8.54149 84.6302 8.55129C84.6302 8.56761 84.6099 8.55781 84.2851 8.35542C84.1396 8.26728 84.0212 8.18893 84.0212 8.17914C84.0212 8.16934 84.0618 8.18893 84.116 8.22157C84.1667 8.25422 84.302 8.33583 84.4205 8.40765ZM78.2597 9.93869C78.2495 9.9648 78.2394 9.95501 78.2394 9.9191C78.236 9.88319 78.2462 9.8636 78.2563 9.87666C78.2665 9.88645 78.2698 9.91583 78.2597 9.93869ZM78.2935 10.0693C78.2834 10.0954 78.2732 10.0856 78.2732 10.0497C78.2698 10.0138 78.28 9.99418 78.2901 10.0072C78.3003 10.017 78.3037 10.0464 78.2935 10.0693ZM81.6192 10.1607C81.5921 10.177 81.5549 10.1933 81.5346 10.1933C81.5177 10.1933 81.5245 10.177 81.5515 10.1607C81.5786 10.1443 81.6192 10.128 81.6361 10.128C81.6564 10.128 81.6462 10.1443 81.6192 10.1607ZM78.3612 10.2978C78.351 10.3239 78.3409 10.3141 78.3409 10.2782C78.3375 10.2423 78.3477 10.2227 78.3578 10.2358C78.368 10.2455 78.3713 10.2749 78.3612 10.2978ZM81.1794 10.3043C81.1794 10.3141 81.1658 10.3304 81.1455 10.3402C81.1286 10.35 81.1117 10.3435 81.1117 10.3272C81.1117 10.3076 81.1286 10.2912 81.1455 10.2912C81.1658 10.2912 81.1794 10.2978 81.1794 10.3043ZM82.9386 10.8952C82.9386 10.905 82.6916 11.0682 82.3905 11.2608C82.0861 11.4501 81.5752 11.7733 81.2504 11.979C80.929 12.1846 80.6584 12.3446 80.6516 12.3381C80.6448 12.3315 80.9222 12.1487 81.2741 11.93C81.6226 11.7113 82.1368 11.3881 82.4142 11.2086C82.9691 10.8527 82.9386 10.8723 82.9386 10.8952ZM78.598 11.0486C78.5879 11.0747 78.5777 11.0649 78.5777 11.029C78.5743 10.9931 78.5845 10.9735 78.5946 10.9866C78.6048 10.9964 78.6082 11.0258 78.598 11.0486ZM80.1678 11.1302C80.1306 11.1988 80.1001 11.2445 80.0968 11.2347C80.0968 11.189 80.2016 10.9703 80.2185 10.9866C80.2287 10.9964 80.205 11.0584 80.1678 11.1302ZM78.6995 11.4077C78.6894 11.4338 78.6792 11.424 78.6792 11.3881C78.6758 11.3522 78.686 11.3326 78.6961 11.3457C78.7063 11.3555 78.7097 11.3848 78.6995 11.4077ZM79.9986 11.522C79.958 11.5872 79.9513 11.5677 79.9817 11.4828C79.9953 11.4534 80.0122 11.4371 80.0189 11.4469C80.0291 11.4534 80.0189 11.4893 79.9986 11.522ZM79.931 11.6852C79.8904 11.7505 79.8836 11.7309 79.9141 11.646C79.9276 11.6166 79.9445 11.6003 79.9513 11.6101C79.9614 11.6166 79.9513 11.6525 79.931 11.6852ZM79.8295 11.9137C79.7923 11.9822 79.7618 12.0279 79.7584 12.0149C79.7584 11.9757 79.8701 11.7603 79.887 11.7733C79.8938 11.7798 79.8667 11.8419 79.8295 11.9137ZM79.728 12.1422C79.6874 12.2075 79.6806 12.1879 79.7111 12.103C79.7246 12.0737 79.7415 12.0573 79.7483 12.0671C79.7584 12.0737 79.7483 12.1096 79.728 12.1422ZM78.9363 12.1585C78.9262 12.1846 78.916 12.1749 78.916 12.1389C78.9126 12.103 78.9228 12.0834 78.9329 12.0965C78.9431 12.1063 78.9465 12.1357 78.9363 12.1585Z" fill="#DCDCDC"/>
<path d="M72.0617 6.67095C71.7065 7.12145 71.4155 7.50992 71.4088 7.53604C71.402 7.56215 71.4223 7.58174 71.4595 7.58174C71.517 7.585 71.517 7.585 71.4561 7.62091C71.3919 7.65356 71.3952 7.66009 71.49 7.73517C71.5576 7.79066 71.5644 7.80372 71.5137 7.78087C71.402 7.72538 71.3343 7.73843 71.3005 7.81678C71.2768 7.87554 71.2701 7.87881 71.2701 7.8331C71.2667 7.73843 71.1923 7.73843 70.9588 7.82331C70.6306 7.94736 70.3532 8.05835 70.3329 8.0812C70.2957 8.11385 71.3073 9.18459 71.3648 9.1748C71.3919 9.16827 71.4257 9.1291 71.4392 9.0834C71.4629 9.00505 71.4629 9.00505 71.4663 9.0736C71.4697 9.11604 71.49 9.14869 71.517 9.14869C71.6118 9.14869 71.7403 9.28253 71.7403 9.38046C71.7403 9.43269 71.7572 9.47513 71.7843 9.4784C71.8046 9.4784 71.7911 9.49146 71.7505 9.50778C71.7099 9.5241 71.6557 9.56654 71.6354 9.59918C71.6016 9.65141 71.5746 9.65794 71.4595 9.63183C71.3817 9.61551 71.3107 9.61551 71.2937 9.63183C71.2768 9.64815 70.9859 9.9648 70.6442 10.3402L70.0251 11.0225L70.1435 11.1302C70.2517 11.2314 70.2585 11.2477 70.245 11.3946L70.228 11.5546L70.6611 11.7635C70.9013 11.8745 71.0908 11.9725 71.084 11.979C71.0772 11.9855 70.8742 11.8974 70.6273 11.7864C70.2145 11.6003 70.1773 11.5905 70.1266 11.6395C70.0792 11.6852 70.0758 11.708 70.113 11.7799C70.1333 11.8288 70.1469 11.8713 70.1401 11.8811C70.1333 11.8876 70.1063 11.8484 70.0826 11.7929C70.0454 11.7113 70.0217 11.695 69.9168 11.695C69.6461 11.6917 69.4939 11.4175 69.636 11.1922L69.6969 11.0943L69.2706 10.3272C69.0338 9.90278 68.6718 9.24336 68.462 8.86141C68.2523 8.48273 68.0662 8.16934 68.0493 8.16934C68.0324 8.16934 68.0188 8.14323 68.0188 8.11058C68.0188 8.04529 67.4606 7.01698 67.4166 7.00066C67.3997 6.9974 67.3693 7.15083 67.3456 7.34343C67.3253 7.53604 67.2982 7.76455 67.2881 7.84943C67.2678 7.99633 67.2712 8.00286 67.3659 8.02244C67.5283 8.05835 67.5317 8.06488 67.4031 8.06814L67.2745 8.07141V8.34563C67.2745 8.5872 67.2847 8.6329 67.3523 8.71451C67.3963 8.76348 67.9681 9.49472 68.6244 10.3402C69.2841 11.1825 69.8255 11.8811 69.8356 11.8908C69.8424 11.8974 69.9269 11.9137 70.0251 11.9268C70.1232 11.9365 70.3972 11.9725 70.634 12.0018C70.8742 12.0312 71.0975 12.0475 71.1314 12.0377C71.1652 12.028 71.2261 12.0345 71.2701 12.0508C71.3343 12.0769 72.6301 12.2173 72.8094 12.2173C72.8432 12.2173 72.8432 12.1944 72.8026 12.103C72.762 12.0051 72.762 11.9757 72.806 11.8647C72.85 11.7603 72.8872 11.7309 72.9887 11.6982C73.0631 11.6787 73.1477 11.6721 73.1816 11.6819C73.3947 11.757 73.4894 11.9953 73.3676 12.152L73.2966 12.2467L73.4759 12.263C73.8108 12.2989 74.5619 12.3479 74.775 12.3479H74.9916L74.9848 11.3653L74.978 10.3794L74.183 9.6253C73.4015 8.881 73.3879 8.87121 73.2594 8.881C73.1816 8.88753 73.0936 8.87121 73.0361 8.83856C72.9515 8.78959 72.9414 8.77001 72.9515 8.65575C72.9684 8.49906 73.0564 8.4305 73.2458 8.42724C73.3778 8.42724 73.3879 8.42071 73.7263 7.99633C74.0409 7.60459 74.3318 7.26508 74.254 7.38587C74.2337 7.41199 74.0443 7.64703 73.8311 7.90819C73.618 8.16934 73.4319 8.40112 73.4184 8.42397C73.4048 8.44682 73.4116 8.51211 73.4319 8.56434C73.4657 8.63943 73.4657 8.68187 73.4387 8.74389C73.4015 8.81897 73.4353 8.85815 74.1627 9.55022C74.5822 9.94848 74.9408 10.2815 74.9611 10.288C74.9814 10.2945 74.9882 10.0007 74.9746 9.43922C74.9645 8.96588 74.9577 8.54149 74.9577 8.49579C74.9577 8.45009 74.9611 8.16281 74.9645 7.85922L74.9713 7.30426L73.7263 7.30099C73.0395 7.29773 72.4711 7.28467 72.4609 7.27488C72.4474 7.26508 72.5049 6.94517 72.5861 6.56975C72.6639 6.19107 72.7248 5.87442 72.7181 5.86789C72.7079 5.86136 72.4136 6.22372 72.0617 6.67095ZM74.7412 7.45769C74.7311 7.4838 74.7209 7.47401 74.7209 7.4381C74.7175 7.40219 74.7277 7.38261 74.7378 7.39566C74.748 7.40546 74.7514 7.43484 74.7412 7.45769ZM72.1362 7.47075C72.126 7.48054 72.0956 7.4838 72.0719 7.47401C72.0448 7.46422 72.055 7.45442 72.0922 7.45442C72.1294 7.45116 72.1497 7.46095 72.1362 7.47075ZM71.8317 7.53604C71.8215 7.54583 71.7911 7.54909 71.7674 7.5393C71.7403 7.52951 71.7505 7.51971 71.7877 7.51971C71.8249 7.51645 71.8452 7.52624 71.8317 7.53604ZM71.6625 7.56868C71.6524 7.57847 71.6219 7.58174 71.5982 7.57194C71.5712 7.56215 71.5813 7.55236 71.6185 7.55236C71.6557 7.54909 71.676 7.55889 71.6625 7.56868ZM72.2309 8.14323C72.2512 8.16281 72.1294 8.10732 71.9602 8.02244C71.7945 7.93757 71.6422 7.84943 71.6219 7.8331C71.605 7.81352 71.7268 7.86901 71.8926 7.95389C72.0617 8.04203 72.214 8.12691 72.2309 8.14323ZM74.8427 7.91471C74.8325 7.94083 74.8224 7.93104 74.8224 7.89513C74.819 7.85922 74.8292 7.83963 74.8393 7.85269C74.8495 7.86248 74.8528 7.89186 74.8427 7.91471ZM74.8765 8.14323C74.8664 8.16608 74.8596 8.14976 74.8596 8.10405C74.8596 8.05835 74.8664 8.04203 74.8765 8.06162C74.8833 8.08447 74.8833 8.12364 74.8765 8.14323ZM67.7076 8.09426C67.6738 8.10079 67.6196 8.10079 67.5892 8.09426C67.5553 8.08447 67.5824 8.07794 67.6467 8.07794C67.711 8.07794 67.738 8.08447 67.7076 8.09426ZM67.9275 8.12691C67.9038 8.13343 67.8564 8.13343 67.826 8.12691C67.7922 8.11711 67.8125 8.11058 67.8666 8.11058C67.9241 8.11058 67.9478 8.11711 67.9275 8.12691ZM71.3682 8.1367C71.3682 8.15302 71.3546 8.16934 71.3343 8.16934C71.3174 8.16934 71.3005 8.15302 71.3005 8.1367C71.3005 8.11711 71.3174 8.10405 71.3343 8.10405C71.3546 8.10405 71.3682 8.11711 71.3682 8.1367ZM72.9075 8.50232C72.9515 8.54802 72.4812 8.30319 72.4339 8.25748C72.417 8.2379 72.5083 8.28034 72.6369 8.34563C72.7688 8.41418 72.8906 8.486 72.9075 8.50232ZM71.3919 8.50232C71.3817 8.52517 71.3749 8.50885 71.3749 8.46315C71.3749 8.41744 71.3817 8.40112 71.3919 8.42071C71.3986 8.44356 71.3986 8.48273 71.3919 8.50232ZM71.4257 8.82877C71.4155 8.85162 71.4088 8.8353 71.4088 8.78959C71.4088 8.74389 71.4155 8.72757 71.4257 8.74716C71.4325 8.77001 71.4325 8.80918 71.4257 8.82877ZM72.8568 8.82224C72.8297 8.83856 72.7925 8.85488 72.7722 8.85488C72.7553 8.85488 72.762 8.83856 72.7891 8.82224C72.8162 8.80592 72.8568 8.78959 72.8737 8.78959C72.894 8.78959 72.8838 8.80592 72.8568 8.82224ZM72.62 8.92017C72.5929 8.93649 72.5557 8.95282 72.5354 8.95282C72.5185 8.95282 72.5252 8.93649 72.5523 8.92017C72.5794 8.90385 72.62 8.88753 72.6369 8.88753C72.6572 8.88753 72.647 8.90385 72.62 8.92017ZM72.4373 9.00178C72.4 9.0279 72.3527 9.05075 72.3358 9.05075C72.3155 9.04749 72.3358 9.0279 72.3831 9.00178C72.4914 8.93976 72.5185 8.94302 72.4373 9.00178ZM72.1801 9.11604C72.1531 9.13236 72.1159 9.14869 72.0956 9.14869C72.0786 9.14869 72.0854 9.13236 72.1125 9.11604C72.1395 9.09972 72.1801 9.0834 72.1971 9.0834C72.2174 9.0834 72.2072 9.09972 72.1801 9.11604ZM71.9433 9.21398C71.9163 9.2303 71.879 9.24662 71.8587 9.24662C71.8418 9.24662 71.8486 9.2303 71.8757 9.21398C71.9027 9.19765 71.9433 9.18133 71.9602 9.18133C71.9805 9.18133 71.9704 9.19765 71.9433 9.21398ZM71.7742 9.93869C71.9569 10.239 71.9501 10.226 71.9332 10.226C71.923 10.226 71.852 10.1182 71.7742 9.98766C71.5915 9.69059 71.5982 9.70365 71.6151 9.70365C71.6253 9.70365 71.6963 9.81137 71.7742 9.93869ZM72.8805 9.85381C72.8703 9.86361 72.8399 9.86687 72.8162 9.85708C72.7891 9.84728 72.7993 9.83749 72.8365 9.83749C72.8737 9.83423 72.894 9.84402 72.8805 9.85381ZM72.082 10.4382L72.1159 10.5034L72.0617 10.4382C72.0313 10.4022 71.9907 10.3435 71.9738 10.3076L71.9399 10.2423L71.9941 10.3076C72.0245 10.3435 72.0651 10.4022 72.082 10.4382Z" fill="#DCDCDC"/>
<path d="M12.8392 8.30647C11.2525 8.9561 9.7673 9.66776 8.45801 10.4153C7.94039 10.7091 7.02355 11.2706 6.99986 11.3065C6.96942 11.3555 8.41065 11.3424 8.89783 11.2869C10.8533 11.065 12.21 10.1901 12.9949 8.64271C13.1133 8.40767 13.2114 8.20854 13.2114 8.19222C13.2114 8.15631 13.1843 8.16284 12.8392 8.30647Z" fill="#DCDCDC"/>
<path d="M49.5298 8.20199C49.5163 8.22158 49.5163 8.60026 49.5264 9.04423C49.5501 10.2651 49.7023 11.238 50.0068 12.1553C50.9067 14.8485 52.9536 16.4676 56.0119 16.8985C56.648 16.99 57.5073 17.0226 58.1636 16.9834C60.9074 16.8202 62.8866 15.7103 63.9996 13.719C64.25 13.2717 64.4056 12.88 64.4056 12.6841C64.409 12.3838 64.1958 12.1651 63.8406 12.1063C63.6072 12.0671 61.9021 11.7015 61.381 11.5807C61.1104 11.5187 60.86 11.4665 60.8228 11.4665C60.5995 11.4665 60.3221 11.6362 60.2139 11.8386C60.1022 12.0508 59.8079 12.3968 59.5947 12.5666C59.3444 12.769 58.8606 13.0106 58.5629 13.0824C57.7881 13.2717 56.7326 13.2032 56.0086 12.9159C54.8245 12.4425 54.0971 11.3718 53.9042 9.81464C53.8636 9.49799 53.8535 9.46534 53.7824 9.43923C53.5997 9.37067 49.6042 8.16935 49.5636 8.16935C49.5568 8.16935 49.5399 8.18567 49.5298 8.20199Z" fill="#DCDCDC"/>
<path d="M101.022 8.76021C99.9966 9.23356 98.8361 9.71344 97.811 10.0954L97.3002 10.288V13.1052V15.9257L97.4287 16.1738C97.581 16.4709 97.8076 16.6864 98.129 16.8333L98.349 16.9345L99.9999 16.9442L101.648 16.954V12.7233C101.648 10.399 101.637 8.49579 101.624 8.49579C101.607 8.49579 101.34 8.61658 101.022 8.76021Z" fill="#DCDCDC"/>
<path d="M67.288 9.02463C67.3252 9.48819 67.403 9.9746 67.5113 10.4055C67.6263 10.8723 67.8598 11.5579 67.9241 11.6166C67.9477 11.6395 68.2996 11.7015 68.7292 11.757C69.1488 11.8158 69.5581 11.868 69.6427 11.881L69.7916 11.9006L69.6765 11.7472C68.6717 10.4447 67.3185 8.72757 67.2948 8.72757C67.2779 8.7243 67.2745 8.85815 67.288 9.02463Z" fill="#DCDCDC"/>
<path d="M84.0246 9.9289C83.6897 10.2684 83.4123 10.5589 83.4123 10.5753C83.4123 10.5916 83.3412 10.6634 83.2533 10.7352C83.0401 10.9017 81.6056 12.3446 81.6259 12.3675C81.6429 12.3838 82.695 12.3283 83.1247 12.2891L83.3615 12.2663L83.5645 11.8745C84.3832 10.2913 84.4441 10.1607 84.3832 10.1052C84.3291 10.053 84.319 10.053 84.2141 10.1084L84.1058 10.1672L84.1904 10.0987C84.2547 10.0497 84.275 10.0007 84.2784 9.90605C84.2784 9.73303 84.3663 9.61551 84.5253 9.56981C84.6404 9.53717 84.6607 9.51758 84.6708 9.42291C84.6776 9.36088 84.6742 9.31192 84.6607 9.31192C84.6471 9.31192 84.3629 9.5894 84.0246 9.9289ZM84.072 10.1901C84.0348 10.2194 83.5577 10.5263 83.4799 10.5687C83.3547 10.634 83.5171 10.5165 83.7844 10.3435C84.0517 10.1737 84.1464 10.1215 84.072 10.1901Z" fill="#DCDCDC"/>
<path d="M83.9501 11.2021L83.4224 12.2402L83.6017 12.2467C83.781 12.2499 83.7844 12.2499 83.8554 12.1128C83.9738 11.8876 84.1599 11.4567 84.143 11.4436C84.1362 11.4371 84.0043 11.6068 83.8486 11.8223C83.6964 12.041 83.5645 12.2108 83.5543 12.2042C83.5475 12.1945 83.7032 11.9659 83.8994 11.695C84.2715 11.1792 84.3291 11.0486 84.4745 10.4545C84.5354 10.2129 84.5388 10.1607 84.5016 10.1607C84.4881 10.1607 84.2377 10.6275 83.9501 11.2021Z" fill="#DCDCDC"/>
<path d="M77.1161 11.8745C77.1161 11.8843 77.1128 12.0116 77.1128 12.1585L77.1094 12.4295L77.5627 12.4393C77.8334 12.4425 78.0025 12.436 77.9822 12.4197C77.9112 12.3577 77.1195 11.8582 77.1161 11.8745Z" fill="#DCDCDC"/>
<path d="M90.8384 12.1553C89.9926 12.3544 87.1811 12.8702 86.9579 12.8702C86.9443 12.8702 86.9308 13.5165 86.9308 14.3033C86.9308 15.6156 86.9376 15.7527 86.9951 15.9355C87.127 16.3436 87.401 16.6472 87.8036 16.83L88.0303 16.9345L89.6813 16.9442L91.3289 16.954V14.5024C91.3289 12.5633 91.3188 12.0541 91.2883 12.0573C91.2646 12.0606 91.0616 12.103 90.8384 12.1553Z" fill="#DCDCDC"/>
<path d="M68.3909 12.72C68.3909 12.7625 68.6378 13.115 68.9254 13.4872C69.2197 13.8658 70.0419 14.7146 70.1434 14.744C70.2381 14.7734 71.7098 14.8909 72.4676 14.9301C73.3912 14.979 75.5125 14.9497 76.3075 14.8778C76.6323 14.8485 76.9029 14.8191 76.9131 14.8125C76.9199 14.8028 76.6999 14.7962 76.4225 14.7962C74.1761 14.7962 71.4222 14.1466 69.1386 13.0791C68.5533 12.8049 68.3841 12.6972 68.8002 12.8571C70.3633 13.4643 72.7822 14.0846 74.599 14.3392C76.2838 14.5742 78.4896 14.5808 79.8429 14.3523C80.6583 14.2151 82.5055 13.6341 83.3107 13.2652L83.5306 13.164L83.2599 13.1803C83.1111 13.1868 82.6476 13.2162 82.2281 13.2456C79.755 13.4056 76.6932 13.4056 74.0577 13.2456C72.1225 13.1281 71.1177 13.0301 68.5533 12.7168C68.4619 12.707 68.3909 12.707 68.3909 12.72Z" fill="#DCDCDC"/>
<path d="M4.07683 13.4284C3.19721 14.1531 2.22285 15.077 1.46502 15.9062C1.14362 16.2555 0.592163 16.9214 0.592163 16.9573C0.592163 16.9704 1.35676 16.9834 2.29052 16.9834H3.98549L4.13096 16.9018C4.22569 16.8496 4.29674 16.7745 4.3441 16.6798C4.41515 16.5395 4.41515 16.5068 4.40838 14.8517L4.39823 13.164L4.07683 13.4284Z" fill="#DCDCDC"/>
<path d="M83.3953 13.2978C83.3412 13.3337 83.145 13.4349 82.9656 13.5263C81.0102 14.4828 78.7671 15.0378 76.0809 15.2239C74.9238 15.3022 72.8906 15.2369 71.5711 15.0737C71.0264 15.0051 71.0197 15.0149 71.5204 15.1423C73.963 15.756 76.4564 15.8898 78.4999 15.5111C78.9803 15.423 79.5216 15.3022 79.7888 15.2206C79.9106 15.188 80.0121 15.1618 80.0189 15.1684C80.0426 15.1912 79.7381 15.312 79.2915 15.4622C77.3327 16.1151 75.1877 16.2097 72.7823 15.7397C72.2748 15.6417 71.2463 15.374 70.9249 15.2565C70.8268 15.2206 70.7389 15.1945 70.7321 15.201C70.7118 15.2206 71.1787 15.5307 71.5339 15.7331C72.3019 16.1706 73.3134 16.559 74.1423 16.7353C74.9272 16.9018 75.2554 16.9344 76.1384 16.9344C77.0045 16.9344 77.2413 16.9116 77.9822 16.7647C80.029 16.3599 81.883 15.2663 83.1991 13.6863C83.5881 13.2227 83.6186 13.1542 83.3953 13.2978Z" fill="#DCDCDC"/>
<path d="M12.5042 20.3687L12.2268 20.7865L12.5584 20.7963L12.8899 20.8061L13.12 20.5678C13.2485 20.4372 13.4278 20.2446 13.5226 20.1402L13.6917 19.9541H13.2384H12.7816L12.5042 20.3687Z" fill="#DCDCDC"/>
<path d="M106.722 19.9998C106.722 20.0847 106.567 20.2152 106.469 20.2152C106.421 20.2152 106.252 20.163 106.093 20.101C105.937 20.039 105.751 19.9867 105.684 19.9867C105.494 19.9867 105.284 20.101 105.169 20.2675C105.078 20.4046 105 20.656 105.041 20.6951C105.051 20.7017 105.163 20.7147 105.291 20.7147C105.504 20.7212 105.521 20.7147 105.531 20.6494C105.545 20.5613 105.66 20.4764 105.765 20.4764C105.809 20.4764 105.971 20.5286 106.127 20.5907C106.286 20.6527 106.472 20.7049 106.543 20.7049C106.847 20.7049 107.152 20.4372 107.186 20.1369C107.203 19.9933 107.199 19.9867 107.121 19.9867C107.074 19.9867 106.966 19.9769 106.878 19.9671C106.746 19.9476 106.722 19.9541 106.722 19.9998Z" fill="#DCDCDC"/>
<path d="M79.9851 21.1522C79.9648 21.5015 79.887 21.8051 79.7719 21.9716C79.7415 22.014 79.7246 22.0532 79.7313 22.0597C79.7381 22.063 79.8261 22.1152 79.9309 22.1707L80.1238 22.2751L80.2625 22.1217C80.3403 22.0368 80.452 21.8704 80.5095 21.7528C80.6076 21.557 80.6211 21.5015 80.6313 21.1685L80.6448 20.8029H80.3268H80.0054L79.9851 21.1522Z" fill="#DCDCDC"/>
<path d="M12.1727 21.0118C11.7228 21.1228 11.3033 21.4394 11.0867 21.8377C10.8939 22.1903 10.833 22.4808 10.833 23.0553C10.833 23.4732 10.8465 23.607 10.9041 23.816C11.1341 24.6288 11.6923 25.0858 12.5178 25.1348C13.0524 25.1675 13.4922 25.0108 13.8407 24.668C14.0842 24.433 14.2297 24.1685 14.3312 23.7768C14.3955 23.5352 14.4023 23.434 14.3887 22.9607C14.3752 22.4775 14.3617 22.3894 14.2805 22.1609C14.0132 21.4068 13.4753 21.0085 12.687 20.9791C12.4772 20.9726 12.2844 20.9824 12.1727 21.0118ZM12.8561 21.6875C13.1539 21.7659 13.3738 22.027 13.4617 22.4057C13.4956 22.5461 13.5159 22.7877 13.5159 23.0717C13.5159 23.9498 13.3027 24.3644 12.7952 24.4656C12.3724 24.5505 11.9901 24.3383 11.831 23.927C11.689 23.5613 11.6551 22.8366 11.7634 22.4025C11.9055 21.8344 12.3385 21.5504 12.8561 21.6875Z" fill="#DCDCDC"/>
<path d="M16.0735 21.0183C15.4713 21.1587 14.9807 21.6614 14.8149 22.3143C14.7337 22.6408 14.7168 23.2479 14.7811 23.6103C14.9503 24.5798 15.6675 25.1772 16.6114 25.1413L16.8618 25.1315L17.2847 25.4547C17.5181 25.6343 17.7245 25.7844 17.7414 25.791C17.7718 25.8008 18.2861 25.3796 18.2861 25.3437C18.2861 25.3339 18.1372 25.2099 17.9511 25.0728L17.6196 24.8214L17.7854 24.6517C17.9985 24.4329 18.2049 24.0249 18.2692 23.6984C18.3368 23.3622 18.3334 22.7289 18.2658 22.409C18.1913 22.0564 17.9917 21.6679 17.7718 21.4525C17.3523 21.0444 16.6926 20.8747 16.0735 21.0183ZM16.9396 21.7528C17.1087 21.8442 17.2813 22.0727 17.3591 22.3143C17.4335 22.5396 17.4606 23.3002 17.4098 23.5972C17.3625 23.8486 17.2373 24.1424 17.1256 24.2567C16.9463 24.4427 16.5776 24.5341 16.2968 24.4623C16.1141 24.4134 15.9043 24.2306 15.8028 24.0379C15.6641 23.7735 15.6303 23.5646 15.6337 23.0227C15.6371 22.6048 15.6506 22.4808 15.7081 22.311C15.8231 21.9683 16.0058 21.7691 16.2832 21.681C16.4422 21.632 16.7772 21.6679 16.9396 21.7528Z" fill="#DCDCDC"/>
<path d="M34.4002 21.0118C33.9434 21.1228 33.5138 21.4492 33.3108 21.8442C33.1179 22.2099 33.0604 22.4841 33.0604 23.0554C33.0604 23.4732 33.074 23.6071 33.1315 23.816C33.3074 24.4395 33.6829 24.8541 34.2412 25.05C34.5389 25.1577 35.1343 25.1577 35.4489 25.0532C35.8854 24.9063 36.2914 24.5276 36.4537 24.1065C36.5958 23.7442 36.6297 23.4993 36.6161 22.9411C36.6026 22.4808 36.5891 22.3894 36.5113 22.1642C36.3083 21.6027 35.9767 21.2534 35.4557 21.064C35.202 20.9726 34.664 20.9465 34.4002 21.0118ZM35.0836 21.6875C35.3914 21.7626 35.6215 22.0597 35.7095 22.4906C35.7737 22.8105 35.7399 23.643 35.6486 23.878C35.52 24.2273 35.3305 24.4036 35.0227 24.4656C34.5998 24.5505 34.2175 24.3383 34.0585 23.927C33.9164 23.5614 33.8825 22.8366 33.9908 22.4025C34.1329 21.8312 34.5524 21.557 35.0836 21.6875Z" fill="#DCDCDC"/>
<path d="M38.0912 21.0118C37.4484 21.1554 37.0695 21.5178 37.0357 22.0303C37.0086 22.4286 37.1608 22.7289 37.5228 22.9803C37.7225 23.1174 37.939 23.2153 38.4262 23.3818C39.0825 23.6103 39.2381 23.7344 39.2381 24.0249C39.2381 24.3742 38.8287 24.5668 38.3044 24.4591C37.9931 24.3971 37.7732 24.1685 37.7732 23.9041V23.8062H37.33H36.8834L36.9071 23.9923C36.9883 24.668 37.692 25.1446 38.6088 25.1446C39.3328 25.1414 39.9012 24.8443 40.0602 24.3873C40.1414 24.1457 40.1144 23.7442 39.9959 23.5254C39.82 23.1892 39.3971 22.9248 38.6867 22.6995C38.0946 22.5102 37.8984 22.36 37.8984 22.0989C37.8984 21.8018 38.1284 21.6386 38.5513 21.6353C38.9539 21.6353 39.1874 21.7953 39.2415 22.1054L39.2618 22.2392H39.6847H40.1076V22.0989C40.1042 21.9389 39.9892 21.6451 39.8572 21.4819C39.7354 21.3252 39.458 21.1456 39.211 21.0608C38.9472 20.9726 38.3856 20.9465 38.0912 21.0118Z" fill="#DCDCDC"/>
<path d="M41.542 21.0118C40.8992 21.1554 40.5203 21.5178 40.4865 22.0303C40.4594 22.4286 40.6116 22.7289 40.9736 22.9803C41.1733 23.1174 41.3898 23.2153 41.877 23.3818C42.5333 23.6103 42.6889 23.7344 42.6889 24.0249C42.6889 24.3742 42.2796 24.5668 41.7552 24.4591C41.4439 24.3971 41.224 24.1685 41.224 23.9041V23.8062H40.7808H40.3342L40.3579 23.9923C40.4391 24.668 41.1428 25.1446 42.0596 25.1446C42.7836 25.1414 43.352 24.8443 43.511 24.3873C43.5922 24.1457 43.5652 23.7442 43.4467 23.5254C43.2708 23.1892 42.8479 22.9248 42.1375 22.6995C41.5454 22.5102 41.3492 22.36 41.3492 22.0989C41.3492 21.8018 41.5792 21.6386 42.0021 21.6353C42.4047 21.6353 42.6382 21.7953 42.6923 22.1054L42.7126 22.2392H43.1355H43.5584V22.0989C43.555 21.9389 43.44 21.6451 43.308 21.4819C43.1862 21.3252 42.9088 21.1456 42.6619 21.0608C42.398 20.9726 41.8364 20.9465 41.542 21.0118Z" fill="#DCDCDC"/>
<path d="M50.1015 21.0118C49.4587 21.1554 49.0798 21.5178 49.0459 22.0303C49.0189 22.4286 49.1711 22.7289 49.5331 22.9803C49.7327 23.1174 49.9492 23.2153 50.4364 23.3818C51.0927 23.6103 51.2484 23.7344 51.2484 24.0249C51.2484 24.3742 50.839 24.5668 50.3146 24.4591C50.0034 24.3971 49.7835 24.1685 49.7835 23.9041V23.8062H49.3403H48.8937L48.9174 23.9923C48.9986 24.668 49.7023 25.1446 50.6191 25.1446C51.3431 25.1414 51.9115 24.8443 52.0705 24.3873C52.1517 24.1457 52.1246 23.7442 52.0062 23.5254C51.8303 23.1892 51.4074 22.9248 50.6969 22.6995C50.1049 22.5102 49.9086 22.36 49.9086 22.0989C49.9086 21.8018 50.1387 21.6386 50.5616 21.6353C50.9642 21.6353 51.1976 21.7953 51.2517 22.1054L51.272 22.2392H51.6949H52.1178V22.0989C52.1145 21.9389 51.9994 21.6451 51.8675 21.4819C51.7457 21.3252 51.4683 21.1456 51.2213 21.0608C50.9574 20.9726 50.3958 20.9465 50.1015 21.0118Z" fill="#DCDCDC"/>
<path d="M64.8826 21.0118C64.4259 21.1228 63.9962 21.4492 63.7932 21.8442C63.6004 22.2099 63.5428 22.4841 63.5428 23.0554C63.5428 23.4732 63.5564 23.6071 63.6139 23.816C63.7898 24.4395 64.1654 24.8541 64.7236 25.05C65.0213 25.1577 65.6167 25.1577 65.9314 25.0532C66.3678 24.9063 66.7738 24.5276 66.9362 24.1065C67.0783 23.7442 67.1121 23.4993 67.0986 22.9411C67.085 22.4808 67.0715 22.3894 66.9937 22.1642C66.7907 21.6027 66.4591 21.2534 65.9381 21.064C65.6844 20.9726 65.1465 20.9465 64.8826 21.0118ZM65.566 21.6875C65.8739 21.7626 66.1039 22.0597 66.1919 22.4906C66.2562 22.8105 66.2223 23.643 66.131 23.878C66.0024 24.2273 65.813 24.4036 65.5051 24.4656C65.0822 24.5505 64.6999 24.3383 64.5409 23.927C64.3988 23.5614 64.365 22.8366 64.4732 22.4025C64.6153 21.8312 65.0348 21.557 65.566 21.6875Z" fill="#DCDCDC"/>
<path d="M87.2149 21.0118C86.5721 21.1554 86.1932 21.5178 86.1593 22.0303C86.1323 22.4286 86.2845 22.7289 86.6465 22.9803C86.8461 23.1174 87.0626 23.2153 87.5498 23.3818C88.2061 23.6103 88.3618 23.7344 88.3618 24.0249C88.3618 24.3742 87.9524 24.5668 87.428 24.4591C87.1168 24.3971 86.8969 24.1685 86.8969 23.9041V23.8062H86.4537H86.0071L86.0308 23.9923C86.112 24.668 86.8157 25.1446 87.7325 25.1446C88.4565 25.1414 89.0249 24.8443 89.1839 24.3873C89.2651 24.1457 89.238 23.7442 89.1196 23.5254C88.9437 23.1892 88.5208 22.9248 87.8103 22.6995C87.2183 22.5102 87.022 22.36 87.022 22.0989C87.022 21.8018 87.2521 21.6386 87.675 21.6353C88.0776 21.6353 88.311 21.7953 88.3652 22.1054L88.3855 22.2392H88.8083H89.2312V22.0989C89.2279 21.9389 89.1128 21.6451 88.9809 21.4819C88.8591 21.3252 88.5817 21.1456 88.3347 21.0608C88.0708 20.9726 87.5092 20.9465 87.2149 21.0118Z" fill="#DCDCDC"/>
<path d="M90.6658 21.0118C90.023 21.1554 89.6441 21.5178 89.6103 22.0303C89.5832 22.4286 89.7354 22.7289 90.0974 22.9803C90.297 23.1174 90.5136 23.2153 91.0007 23.3818C91.6571 23.6103 91.8127 23.7344 91.8127 24.0249C91.8127 24.3742 91.4033 24.5668 90.8789 24.4591C90.5677 24.3971 90.3478 24.1685 90.3478 23.9041V23.8062H89.9046H89.458L89.4817 23.9923C89.5629 24.668 90.2666 25.1446 91.1834 25.1446C91.9074 25.1414 92.4758 24.8443 92.6348 24.3873C92.716 24.1457 92.6889 23.7442 92.5705 23.5254C92.3946 23.1892 91.9717 22.9248 91.2612 22.6995C90.6692 22.5102 90.473 22.36 90.473 22.0989C90.473 21.8018 90.703 21.6386 91.1259 21.6353C91.5285 21.6353 91.7619 21.7953 91.8161 22.1054L91.8364 22.2392H92.2593H92.6822V22.0989C92.6788 21.9389 92.5638 21.6451 92.4318 21.4819C92.31 21.3252 92.0326 21.1456 91.7856 21.0608C91.5217 20.9726 90.9601 20.9465 90.6658 21.0118Z" fill="#DCDCDC"/>
<path d="M101.972 21.0183C101.509 21.126 101.127 21.4296 100.92 21.854C100.721 22.2621 100.687 22.4481 100.687 23.0717C100.69 23.6984 100.748 23.9792 100.941 24.3317C101.147 24.7039 101.58 25.0303 101.962 25.0956L102.087 25.1185L102.081 25.285L102.07 25.4515L102.196 25.471C102.365 25.5004 102.426 25.5559 102.426 25.6832C102.426 25.8073 102.378 25.853 102.229 25.8824L102.121 25.902V26.1337V26.3622L102.341 26.3427C102.463 26.3296 102.635 26.2904 102.723 26.2545C103.018 26.1272 103.136 25.9672 103.136 25.693C103.136 25.4678 103.045 25.3176 102.866 25.2523C102.696 25.187 102.693 25.125 102.859 25.1022C103.214 25.0565 103.606 24.8247 103.83 24.5309C103.945 24.3774 104.06 24.1 104.1 23.8617L104.121 23.7409H103.684H103.248L103.224 23.8747C103.177 24.162 103.004 24.3709 102.751 24.4427C102.25 24.5864 101.817 24.4003 101.665 23.9726C101.583 23.7409 101.536 23.2414 101.56 22.8431C101.593 22.2229 101.729 21.8867 102.003 21.7332C102.28 21.5765 102.751 21.5961 102.97 21.7724C103.099 21.8769 103.2 22.0662 103.228 22.2555L103.248 22.4024H103.684H104.124L104.104 22.2784C103.952 21.4362 103.332 20.9595 102.412 20.9693C102.28 20.9693 102.084 20.9922 101.972 21.0183Z" fill="#DCDCDC"/>
<path d="M109.473 21.0118C109.016 21.1228 108.586 21.4492 108.383 21.8442C108.191 22.2099 108.133 22.4841 108.133 23.0554C108.133 23.4732 108.147 23.6071 108.204 23.816C108.38 24.4395 108.756 24.8541 109.314 25.05C109.612 25.1577 110.207 25.1577 110.522 25.0532C110.958 24.9063 111.364 24.5276 111.526 24.1065C111.668 23.7442 111.702 23.4993 111.689 22.9411C111.675 22.4808 111.662 22.3894 111.584 22.1642C111.381 21.6027 111.049 21.2534 110.528 21.064C110.275 20.9726 109.737 20.9465 109.473 21.0118ZM110.156 21.6875C110.464 21.7626 110.694 22.0597 110.782 22.4906C110.846 22.8105 110.813 23.643 110.721 23.878C110.593 24.2273 110.403 24.4036 110.095 24.4656C109.672 24.5505 109.29 24.3383 109.131 23.927C108.989 23.5614 108.955 22.8366 109.063 22.4025C109.206 21.8312 109.625 21.557 110.156 21.6875Z" fill="#DCDCDC"/>
<path d="M0.422974 23.0553V25.0793H0.862786H1.3026V24.3611V23.6429H1.78639C2.05028 23.6429 2.36492 23.6266 2.48671 23.607C2.94682 23.5385 3.3528 23.2741 3.52534 22.928C3.61331 22.7615 3.62007 22.7126 3.62007 22.3698C3.62007 22.0303 3.60992 21.9748 3.52873 21.8083C3.41032 21.5635 3.20733 21.3578 2.96035 21.2305C2.6288 21.0575 2.41566 21.0314 1.3635 21.0314H0.422974V23.0553ZM2.32093 21.7234C2.63219 21.8279 2.7709 22.0466 2.75398 22.4122C2.73707 22.6865 2.66264 22.817 2.46303 22.9117C2.35815 22.9607 2.23636 22.9737 1.82022 22.9835L1.3026 22.9966V22.3404V21.6843H1.75594C2.01307 21.6843 2.25665 21.7006 2.32093 21.7234Z" fill="#DCDCDC"/>
<path d="M4.75 21.1195C4.58084 21.5439 3.23096 25.0434 3.23096 25.0597C3.23096 25.0695 3.43395 25.0793 3.6843 25.0793H4.14103L4.28651 24.6549L4.43198 24.2306L5.18982 24.2371L5.94765 24.2469L6.08974 24.6549L6.23183 25.063L6.69871 25.0728C7.06409 25.0793 7.15882 25.0728 7.14867 25.0401C7.13852 25.0173 6.78329 24.1065 6.36039 23.0129L5.58903 21.0314H5.18643H4.78722L4.75 21.1195ZM5.44694 22.8072C5.58565 23.199 5.70067 23.5287 5.70067 23.5483C5.70067 23.5646 5.48753 23.5777 5.1932 23.5777C4.91578 23.5777 4.68572 23.5679 4.68572 23.5548C4.68572 23.5124 5.1729 22.076 5.18305 22.0891C5.18982 22.0956 5.30823 22.4188 5.44694 22.8072Z" fill="#DCDCDC"/>
<path d="M7.3584 23.0553V25.0793H7.79821H8.23802V24.3285V23.5744L8.57972 23.5842L8.92143 23.594L9.31387 24.335L9.70971 25.0793H10.1766C10.4303 25.0793 10.6401 25.0695 10.6401 25.0565C10.6401 25.0467 10.4439 24.6713 10.2003 24.2273C9.96006 23.7833 9.76045 23.4046 9.76045 23.3851C9.76045 23.3655 9.81797 23.323 9.88901 23.2871C10.0683 23.199 10.3119 22.9346 10.3897 22.7452C10.4405 22.6212 10.454 22.5004 10.454 22.2229C10.454 21.8965 10.4439 21.8475 10.3627 21.7006C10.2544 21.4982 10.0108 21.2762 9.80782 21.1913C9.49995 21.0575 9.24959 21.0314 8.28201 21.0314H7.3584V23.0553ZM9.20223 21.7202C9.61836 21.8312 9.75707 22.4384 9.43567 22.7485C9.28343 22.8921 9.14471 22.9248 8.65415 22.9248H8.23802V22.3045V21.6843H8.65415C8.88083 21.6843 9.1278 21.7006 9.20223 21.7202Z" fill="#DCDCDC"/>
<path d="M18.726 22.4906C18.726 24.0739 18.7327 24.1359 18.9154 24.4558C19.159 24.8933 19.6834 25.1446 20.3499 25.1446C21.0434 25.1446 21.6321 24.8149 21.8452 24.3024C21.9231 24.1196 21.9231 24.1 21.9332 22.5722L21.9434 21.0314H21.5035H21.0637L21.0536 22.5396C21.0434 23.9433 21.04 24.0608 20.9791 24.1751C20.81 24.5048 20.1604 24.5995 19.839 24.3383C19.6056 24.149 19.6056 24.1522 19.6056 22.5069V21.0314H19.1658H18.726V22.4906Z" fill="#DCDCDC"/>
<path d="M22.549 23.0553V25.0793H22.9718H23.3947V23.0553V21.0314H22.9718H22.549V23.0553Z" fill="#DCDCDC"/>
<path d="M25.2521 21.1195C25.0829 21.5439 23.733 25.0434 23.733 25.0597C23.733 25.0695 23.936 25.0793 24.1864 25.0793H24.6431L24.7886 24.6549L24.9341 24.2306L25.6919 24.2371L26.4497 24.2469L26.5918 24.6549L26.7339 25.063L27.2008 25.0728C27.5662 25.0793 27.6609 25.0728 27.6507 25.0401C27.6406 25.0173 27.2854 24.1065 26.8625 23.0129L26.0911 21.0314H25.6885H25.2893L25.2521 21.1195ZM25.949 22.8072C26.0877 23.199 26.2028 23.5287 26.2028 23.5483C26.2028 23.5646 25.9896 23.5777 25.6953 23.5777C25.4179 23.5777 25.1878 23.5679 25.1878 23.5548C25.1878 23.5124 25.675 22.076 25.6851 22.0891C25.6919 22.0956 25.8103 22.4188 25.949 22.8072Z" fill="#DCDCDC"/>
<path d="M29.1461 23.0553V25.0793H29.5859H30.0257L30.0325 23.7703L30.0427 22.4579L30.8715 23.767L31.7004 25.0793H32.1335H32.5631V23.0553V21.0314H32.1402H31.7173L31.7106 22.3567L31.7004 23.6854L30.8614 22.3567L30.019 21.0314H29.5825H29.1461V23.0553Z" fill="#DCDCDC"/>
<path d="M45.1451 21.1195C44.976 21.5439 43.6261 25.0434 43.6261 25.0597C43.6261 25.0695 43.8291 25.0793 44.0794 25.0793H44.5362L44.6816 24.6549L44.8271 24.2306L45.585 24.2371L46.3428 24.2469L46.4849 24.6549L46.627 25.063L47.0939 25.0728C47.4592 25.0793 47.554 25.0728 47.5438 25.0401C47.5337 25.0173 47.1784 24.1065 46.7555 23.0129L45.9842 21.0314H45.5816H45.1824L45.1451 21.1195ZM45.8421 22.8072C45.9808 23.199 46.0958 23.5287 46.0958 23.5483C46.0958 23.5646 45.8827 23.5777 45.5883 23.5777C45.3109 23.5777 45.0809 23.5679 45.0809 23.5548C45.0809 23.5124 45.568 22.076 45.5782 22.0891C45.585 22.0956 45.7034 22.4188 45.8421 22.8072Z" fill="#DCDCDC"/>
<path d="M52.5238 23.0553V25.0793H53.9447H55.3657V24.7529V24.4264H54.3845H53.4034V23.8715V23.3165H54.2323H55.0612V22.9901V22.6636H54.2323H53.4034V22.1739V21.6843H54.3676H55.3318V21.3578V21.0314H53.9278H52.5238V23.0553Z" fill="#DCDCDC"/>
<path d="M55.6702 23.0553V25.0793H56.11H56.5498L56.5566 23.7703L56.5667 22.4579L57.3956 23.767L58.2245 25.0793H58.6575H59.0872V23.0553V21.0314H58.6643H58.2414L58.2346 22.3567L58.2245 23.6854L57.3854 22.3567L56.543 21.0314H56.1066H55.6702V23.0553Z" fill="#DCDCDC"/>
<path d="M59.6624 23.0553V25.0793H60.1022H60.542V24.1979V23.3165H61.3878H62.2336V24.1979V25.0793H62.6565H63.0794V23.0553V21.0314H62.6565H62.2336V21.8475V22.6636H61.3878H60.542V21.8475V21.0314H60.1022H59.6624V23.0553Z" fill="#DCDCDC"/>
<path d="M67.579 23.0553V25.0793H68.0188H68.4586V24.3285V23.5744L68.8003 23.5842L69.142 23.594L69.5345 24.335L69.9303 25.0793H70.8336H71.7369L71.8824 24.6549L72.0279 24.2306L72.7857 24.2371L73.5435 24.2469L73.6856 24.6549L73.8277 25.063L74.2946 25.0728C74.66 25.0793 74.7547 25.0728 74.7445 25.0401C74.7344 25.0173 74.3792 24.1032 73.9563 23.0129L73.1849 21.0281L72.7789 21.0379L72.3729 21.0477L71.632 22.9574C71.226 24.0086 70.881 24.8965 70.8674 24.9291C70.8437 24.9814 70.7524 24.8377 70.4107 24.2077C70.1739 23.7768 69.981 23.4046 69.981 23.3851C69.981 23.3655 70.0385 23.323 70.1096 23.2871C70.2889 23.199 70.5325 22.9346 70.6103 22.7452C70.6611 22.6212 70.6746 22.5004 70.6746 22.2229C70.6746 21.8965 70.6644 21.8475 70.5832 21.7006C70.475 21.4982 70.2314 21.2762 70.0284 21.1913C69.7205 21.0575 69.4702 21.0314 68.5026 21.0314H67.579V23.0553ZM69.4228 21.7202C69.8389 21.8312 69.9777 22.4384 69.6562 22.7485C69.504 22.8921 69.3653 22.9248 68.8747 22.9248H68.4586V22.3045V21.6843H68.8747C69.1014 21.6843 69.3484 21.7006 69.4228 21.7202ZM73.0428 22.8072C73.1815 23.199 73.2965 23.5287 73.2965 23.5483C73.2965 23.5646 73.0834 23.5777 72.7891 23.5777C72.5116 23.5777 72.2816 23.5679 72.2816 23.5548C72.2816 23.5124 72.7688 22.076 72.7789 22.0891C72.7857 22.0956 72.9041 22.4188 73.0428 22.8072Z" fill="#DCDCDC"/>
<path d="M76.2399 23.0521V25.0793H77.0112C77.671 25.0793 77.8232 25.0695 78.0465 25.014C78.7434 24.841 79.2137 24.3872 79.3896 23.705C79.4505 23.4732 79.4607 23.3687 79.4471 22.9607C79.4336 22.5526 79.4167 22.4481 79.3422 22.2425C79.1426 21.6973 78.784 21.348 78.2055 21.1326C77.9924 21.0542 77.945 21.051 77.1127 21.0379L76.2399 21.0248V23.0521ZM78.0093 21.7789C78.2089 21.8703 78.3814 22.0662 78.4795 22.3012C78.5472 22.4645 78.554 22.5461 78.5573 23.0227C78.5573 23.4569 78.5472 23.5972 78.4964 23.7409C78.4085 23.9988 78.2461 24.1979 78.0296 24.3089C77.8706 24.3938 77.8063 24.4068 77.4849 24.4199L77.1195 24.4362V23.0553V21.6745L77.4849 21.6908C77.7758 21.7006 77.8841 21.7202 78.0093 21.7789Z" fill="#DCDCDC"/>
<path d="M83.578 21.1195C83.4088 21.5439 82.059 25.0434 82.059 25.0597C82.059 25.0695 82.262 25.0793 82.5123 25.0793H82.969L83.1145 24.6549L83.26 24.2306L84.0178 24.2371L84.7756 24.2469L84.9177 24.6549L85.0598 25.063L85.5267 25.0728C85.8921 25.0793 85.9868 25.0728 85.9767 25.0401C85.9665 25.0173 85.6113 24.1065 85.1884 23.0129L84.417 21.0314H84.0144H83.6152L83.578 21.1195ZM84.2749 22.8072C84.4136 23.199 84.5287 23.5287 84.5287 23.5483C84.5287 23.5646 84.3155 23.5777 84.0212 23.5777C83.7438 23.5777 83.5137 23.5679 83.5137 23.5548C83.5137 23.5124 84.0009 22.076 84.0111 22.0891C84.0178 22.0956 84.1362 22.4188 84.2749 22.8072Z" fill="#DCDCDC"/>
<path d="M93.0543 22.4906C93.0543 24.0739 93.0611 24.1359 93.2438 24.4558C93.4874 24.8933 94.0118 25.1446 94.6782 25.1446C95.3718 25.1446 95.9605 24.8149 96.1736 24.3024C96.2514 24.1196 96.2514 24.1 96.2616 22.5722L96.2717 21.0314H95.8319H95.3921L95.3819 22.5396C95.3718 23.9433 95.3684 24.0608 95.3075 24.1751C95.1384 24.5048 94.4888 24.5995 94.1674 24.3383C93.9339 24.149 93.9339 24.1522 93.9339 22.5069V21.0314H93.4941H93.0543V22.4906Z" fill="#DCDCDC"/>
<path d="M96.8096 23.0553V25.0793H97.2494H97.6892L97.696 23.7703L97.7061 22.4579L98.535 23.767L99.3639 25.0793H99.7969H100.227V23.0553V21.0314H99.8037H99.3808L99.374 22.3567L99.3639 23.6854L98.5248 22.3567L97.6824 21.0314H97.246H96.8096V23.0553Z" fill="#DCDCDC"/>
<path d="M105.67 21.1195C105.501 21.5439 104.151 25.0434 104.151 25.0597C104.151 25.0695 104.354 25.0793 104.604 25.0793H105.061L105.207 24.6549L105.352 24.2306L106.11 24.2371L106.868 24.2469L107.01 24.6549L107.152 25.063L107.619 25.0728C107.984 25.0793 108.079 25.0728 108.069 25.0401C108.059 25.0173 107.703 24.1065 107.281 23.0129L106.509 21.0314H106.107H105.707L105.67 21.1195ZM106.367 22.8072C106.506 23.199 106.621 23.5287 106.621 23.5483C106.621 23.5646 106.408 23.5777 106.113 23.5777C105.836 23.5777 105.606 23.5679 105.606 23.5548C105.606 23.5124 106.093 22.076 106.103 22.0891C106.11 22.0956 106.228 22.4188 106.367 22.8072Z" fill="#DCDCDC"/>
<path d="M41.9785 27.8672C41.5218 27.9782 41.0921 28.3046 40.8891 28.6996C40.6963 29.0652 40.6388 29.3395 40.6388 29.9107C40.6388 30.3286 40.6523 30.4624 40.7098 30.6714C40.8858 31.2949 41.2613 31.7095 41.8195 31.9053C42.1172 32.0131 42.7127 32.0131 43.0273 31.9086C43.4637 31.7617 43.8697 31.383 44.0321 30.9619C44.1742 30.5995 44.208 30.3547 44.1945 29.7965C44.181 29.3362 44.1674 29.2448 44.0896 29.0195C43.8866 28.458 43.5551 28.1088 43.0341 27.9194C42.7803 27.828 42.2424 27.8019 41.9785 27.8672ZM42.6619 28.5429C42.9698 28.618 43.1999 28.9151 43.2878 29.346C43.3521 29.6659 43.3183 30.4983 43.2269 30.7334C43.0984 31.0827 42.9089 31.259 42.601 31.321C42.1781 31.4059 41.7958 31.1937 41.6368 30.7824C41.4947 30.4167 41.4609 29.692 41.5692 29.2578C41.7113 28.6866 42.1308 28.4123 42.6619 28.5429Z" fill="#DCDCDC"/>
<path d="M57.7813 27.8672C57.1385 28.0108 56.7596 28.3732 56.7257 28.8857C56.6987 29.284 56.8509 29.5843 57.2129 29.8357C57.4125 29.9728 57.629 30.0707 58.1162 30.2372C58.7725 30.4657 58.9282 30.5897 58.9282 30.8803C58.9282 31.2296 58.5188 31.4222 57.9944 31.3145C57.6832 31.2524 57.4633 31.0239 57.4633 30.7595V30.6616H57.0201H56.5735L56.5972 30.8476C56.6784 31.5234 57.3821 32 58.2989 32C59.0229 31.9967 59.5913 31.6997 59.7503 31.2426C59.8315 31.0011 59.8044 30.5995 59.686 30.3808C59.5101 30.0446 59.0872 29.7802 58.3767 29.5549C57.7847 29.3656 57.5884 29.2154 57.5884 28.9542C57.5884 28.6572 57.8185 28.494 58.2414 28.4907C58.644 28.4907 58.8774 28.6507 58.9316 28.9608L58.9519 29.0946H59.3748H59.7977V28.9542C59.7943 28.7943 59.6792 28.5005 59.5473 28.3373C59.4255 28.1806 59.1481 28.001 58.9011 27.9161C58.6372 27.828 58.0756 27.8019 57.7813 27.8672Z" fill="#DCDCDC"/>
<path d="M44.6749 29.9107V31.9347H46.0959H47.5168V31.6083V31.2818H46.5357H45.5546V30.7269V30.1719H46.3834H47.2123V29.8455V29.519H46.3834H45.5546V29.0293V28.5397H46.5188H47.483V28.2132V27.8868H46.0789H44.6749V29.9107Z" fill="#DCDCDC"/>
<path d="M47.8889 29.9107V31.9347H48.3118H48.7347V29.9107V27.8868H48.3118H47.8889V29.9107Z" fill="#DCDCDC"/>
<path d="M49.3436 29.9107V31.9347H49.7834H50.2233V31.1839V30.4298L50.565 30.4396L50.9067 30.4494L51.2991 31.1904L51.6949 31.9347H52.6152H53.5354L53.6809 31.5103L53.8263 31.086L54.5842 31.0925L55.342 31.1023L55.4841 31.5103L55.6262 31.9184L56.0931 31.9282C56.4584 31.9347 56.5532 31.9282 56.543 31.8955C56.5329 31.8727 56.1776 30.9586 55.7547 29.8683L54.9834 27.8835L54.5774 27.8933L54.1714 27.9031L53.4305 29.8128C53.0245 30.864 52.6761 31.7584 52.6558 31.8009C52.6253 31.876 52.5847 31.8172 52.1855 31.0827C51.9453 30.6453 51.7491 30.2666 51.7457 30.247C51.7457 30.2241 51.8032 30.1784 51.8742 30.1425C52.0536 30.0544 52.2971 29.79 52.375 29.6006C52.4257 29.4766 52.4392 29.3558 52.4392 29.0783C52.4392 28.7519 52.4291 28.7029 52.3479 28.556C52.2396 28.3536 51.996 28.1316 51.793 28.0467C51.4852 27.9129 51.2348 27.8868 50.2672 27.8868H49.3436V29.9107ZM51.1875 28.5756C51.6036 28.6866 51.7423 29.2938 51.4209 29.6039C51.2687 29.7475 51.1299 29.7802 50.6394 29.7802H50.2233V29.1599V28.5397H50.6394C50.8661 28.5397 51.113 28.556 51.1875 28.5756ZM54.8413 29.6626C54.98 30.0544 55.095 30.3841 55.095 30.4037C55.095 30.42 54.8819 30.4331 54.5875 30.4331C54.3101 30.4331 54.0801 30.4233 54.0801 30.4102C54.0801 30.3678 54.5672 28.9314 54.5774 28.9445C54.5842 28.951 54.7026 29.2742 54.8413 29.6626Z" fill="#DCDCDC"/>
<path d="M64.9062 29.9107V31.9347H65.3461H65.7859V31.2165V30.4984H66.2697C66.5336 30.4984 66.8482 30.482 66.97 30.4624C67.4301 30.3939 67.8361 30.1295 68.0086 29.7834C68.0966 29.6169 68.1034 29.568 68.1034 29.2252C68.1034 28.8857 68.0932 28.8302 68.012 28.6637C67.8936 28.4189 67.6906 28.2132 67.4436 28.0859C67.1121 27.9129 66.8989 27.8868 65.8468 27.8868H64.9062V29.9107ZM66.8042 28.5788C67.1155 28.6833 67.2542 28.902 67.2373 29.2676C67.2203 29.5419 67.1459 29.6724 66.9463 29.7671C66.8414 29.8161 66.7196 29.8291 66.3035 29.8389L65.7859 29.852V29.1958V28.5397H66.2392C66.4963 28.5397 66.7399 28.556 66.8042 28.5788Z" fill="#DCDCDC"/>
<path d="M69.1995 27.9749C69.0303 28.3993 67.6804 31.8988 67.6804 31.9151C67.6804 31.9249 67.8834 31.9347 68.1338 31.9347H68.5905L68.736 31.5103L68.8814 31.086L69.6393 31.0925L70.3971 31.1023L70.5392 31.5103L70.6813 31.9184L71.1482 31.9282C71.5136 31.9347 71.6083 31.9282 71.5981 31.8955C71.588 31.8727 71.2328 30.9619 70.8099 29.8683L70.0385 27.8868H69.6359H69.2367L69.1995 27.9749ZM69.8964 29.6626C70.0351 30.0544 70.1501 30.3841 70.1501 30.4037C70.1501 30.42 69.937 30.4331 69.6427 30.4331C69.3652 30.4331 69.1352 30.4233 69.1352 30.4102C69.1352 30.3678 69.6224 28.9314 69.6325 28.9445C69.6393 28.951 69.7577 29.2742 69.8964 29.6626Z" fill="#DCDCDC"/>
<path d="M61.4216 30.2046V30.531H62.2505H63.0794V30.2046V29.8781H62.2505H61.4216V30.2046Z" fill="#DCDCDC"/>
</g>
<defs>
<clipPath id="clip0_11_1226">
<rect width="112" height="32" fill="white"/>
</clipPath>
</defs>
</svg>
